<svg xmlns="http://www.w3.org/2000/svg" xmlns:xlink="http://www.w3.org/1999/xlink" width="300" height="100" viewBox="0 0 300 100">
  <defs>
    <clipPath id="clip-custom_1">
      <rect width="300" height="100"/>
    </clipPath>
  </defs>
  <g id="custom_1" data-name="custom – 1" clip-path="url(#clip-custom_1)">
    <g id="elementor-white" transform="translate(5.001 269)">
      <path id="Tracciato_1" data-name="Tracciato 1" d="M11.529-254.206a3.784,3.784,0,0,0-1.235,2c-.176.676-.294,15.028-.294,33.614,0,35.085-.059,33.791,1.559,34.85.706.471,3.235.5,34.644.5,33.232,0,33.85,0,34.673-.588a3.905,3.905,0,0,0,1.147-1.382c.235-.618.323-9.47.265-34.085-.088-31.615-.118-33.262-.618-34.056-1.118-1.706.412-1.617-35.849-1.647H12.5Zm24.939,19.351c.294.353.323,3.647.176,15.969-.118,8.529-.323,15.616-.441,15.734a12.265,12.265,0,0,1-3,.147l-2.764-.088-.176-3.088c-.265-4.058-.323-28.056-.088-28.644C30.439-235.5,35.909-235.5,36.467-234.855ZM62.2-231.914v3.235H43.084L43-231.59a29.265,29.265,0,0,1,.059-3.323c.147-.324,1.941-.382,9.646-.324l9.5.088Zm.147,12.793v3.235l-9.617-.059-9.646-.088L43-218.8a21.583,21.583,0,0,1,.059-3.176c.118-.294,2.059-.382,9.734-.382h9.558Zm-.059,12.852-.088,3.176H43.084L43-206.269l-.088-3.147H62.377Z" transform="translate(0)"/>
      <path id="Tracciato_2" data-name="Tracciato 2" d="M342.979-214.247l-.971.794-.412,5.294c-.206,2.911-.588,8.264-.853,11.911l-.471,6.617-1.294,2.764c-3.235,6.735-7.176,11.2-9.911,11.2-1.912,0-2.882-2.264-2.882-6.588,0-3.764.088-3.941,1.735-4.147a19.56,19.56,0,0,0,6.058-1.97,5.512,5.512,0,0,0,2.206-4.088c-.029-3.264-2.235-7.382-4.705-8.646-4.911-2.529-9.264,2.294-11.2,12.411-.529,2.823-.206,9.234.559,11.411,1.617,4.441,4.206,6.088,8.558,5.411,3.706-.559,6.735-2.794,9.47-6.941.676-1.029,1.323-1.765,1.47-1.676a1.879,1.879,0,0,1,.265,1.176,20.455,20.455,0,0,0,1.676,6.676c2.294,4.558,7.235,2.882,10.44-3.558.941-1.882,1.323-2.206,1.588-1.323a9.256,9.256,0,0,0,3.735,5.117c1.941,1,5.235.882,7.735-.294a17.99,17.99,0,0,0,6.735-6.264,8.549,8.549,0,0,1,1.617-2,9.883,9.883,0,0,1,.353,3.294l.088,3.323,1.147.559a2.673,2.673,0,0,0,2.5.206c1.882-.5,2.264-1,2.794-3.647a68.884,68.884,0,0,1,2.882-9.117c.441-.882.823-.265.618,1.118-.294,2.264.206,7.411.794,8.146.5.618.588.647,1.676.265,1.853-.647,2.617-1.676,5.264-6.97,2.294-4.647,3.147-6,3.5-5.647a3.613,3.613,0,0,1-.206,1.294,49.9,49.9,0,0,0-.147,10.47,6.176,6.176,0,0,0,1.088,1.823c2,2.264,5.235,1.441,7.764-2,2.059-2.794,2.117-2.823,2.5-1.059.735,3.353,2.5,5.941,4.676,6.823a13.4,13.4,0,0,0,6.176-.176,16.481,16.481,0,0,0,7.911-7c.588-.941,1.176-1.617,1.323-1.529a3.731,3.731,0,0,1,.235,1.853c-.088,2.853-.059,2.941.97,3.588a3.813,3.813,0,0,0,4.676-.588,3.286,3.286,0,0,0,.823-1.676,32.1,32.1,0,0,1,1.823-6.941c.941-2.235,1.412-1.853,1.412,1.118,0,4.411,1.706,6.882,4.794,6.882a5.781,5.781,0,0,0,2.206-.412,17.1,17.1,0,0,0,4-4.088c.294-.441.647-.735.765-.647a4.315,4.315,0,0,1,.441,1.853c.353,2.941,1.294,5.264,2.647,6.529a2.721,2.721,0,0,0,2.294.735,7.144,7.144,0,0,0,2.617-.529c1.47-.706,3.588-3.176,4.735-5.558a6.225,6.225,0,0,1,1.235-1.97c.176,0,.706.559,1.235,1.265,2,2.706,6.588,3.706,9.94,2.117,2.941-1.382,5.029-4.323,5.823-8.264.323-1.617.529-2.088.97-2.147a2.821,2.821,0,0,0,1.235-1.088c1.147-1.765,2.117-1.176,1.559.941-1.47,5.411-.588,12.646,1.676,14.146a6.061,6.061,0,0,0,5.088-.176,14.3,14.3,0,0,0,3.97-4.176c1.853-3,4.5-11.028,4.088-12.352-.353-1.147-3.088-1-3.088.147a49.3,49.3,0,0,1-2.882,8.234c-1.882,4.205-2.647,5.088-3.529,4.205-.735-.735-.412-5.558.706-10.881.794-3.764.676-3.911-2.882-3.911-3.029,0-2.823.176-2.382-2.147.235-1.353-.5-2.117-2.147-2.117-1.323,0-3.059,1.088-3.059,1.941,0,.735-.5.441-2.147-1.176a8,8,0,0,0-6.205-2.529c-3.5.029-6.705,3-8.087,7.5A66.609,66.609,0,0,1,457-178.986c-.618,1.059-1.529,1.265-1.853.441-.441-1.176.029-17.969.618-20.88.118-.588.294-.647,1.912-.647,1.853,0,3.294-.529,3.617-1.323.265-.735.235-.853-.412-1.559-.471-.5-.941-.647-2.206-.647-2.353,0-2.47-.088-2.176-1.676.323-1.735.088-2.617-.912-3.323a4.382,4.382,0,0,0-4.411,0c-.853.618-1.47,2.353-1.47,4.235v1.059h-1.97c-2.176,0-2.47.118-2.97,1.059-.294.529-.235.794.265,1.412.529.676.794.765,2.5.765h1.882l-.029,1.382c0,.794-.176,3.264-.382,5.529-.353,3.882-.441,4.235-1.559,6.47-1.294,2.529-3.353,5.352-4.117,5.647a.749.749,0,0,1-.853-.353c-.559-.735-.529-5.794,0-8.587.323-1.794.323-2.206,0-2.706-1-1.412-4.205-.941-5.97.853-.97.97-1.529,1.97-3.147,5.441-.823,1.765-.853.559-.088-3.735,1-5.647,1-6.176.323-6.793-1.5-1.353-5.117-.618-6.058,1.206a15.271,15.271,0,0,0-.794,3.764,12.664,12.664,0,0,1-1.617,5.5c-2.5,5.029-5.029,8.411-7.44,9.97-1.588,1-2.676,1.059-3.706.147-1.294-1.118-1.97-5.264-1.382-8.587l.206-1.176,2.647-.529c5.794-1.176,7.764-3.47,6.764-7.793a10.115,10.115,0,0,0-2.941-5.5,5.548,5.548,0,0,0-5.088-1.765c-2.706.412-5.588,4.647-6.94,10.352a36.187,36.187,0,0,1-3.029,7.911c-2.088,4.294-3.617,5.676-3.617,3.235,0-1.059.823-6.676,1.882-12.969.618-3.617.588-4.411-.176-5.147-.853-.794-2.882-.794-4.558.029-1.118.529-1.676,1.206-3.911,4.647-3.147,4.794-3.558,5.382-3.706,5.264a24.517,24.517,0,0,1,.618-4.411c.618-2.353-3.647-2.706-6.176-.5-.941.823-3.676,5.911-3.676,6.823,0,.382-.559,1.088-.882,1.088-.265,0,.882-9.234,1.529-12.322.323-1.441.294-1.617-.206-1.97-1.235-.912-3.823-.206-5.558,1.47-1.441,1.412-1.941,3.117-1.941,6.529,0,2-.118,2.382-1.47,5.147-3.294,6.676-7.088,10.852-9.823,10.852-1.059,0-2.088-1.176-2.5-2.794-.353-1.441-.441-6.882-.088-7.411a4.967,4.967,0,0,1,2.117-.647c4.147-.676,6.764-2.264,7.382-4.5,1.088-4.088-2.441-10.146-6.205-10.675a6.1,6.1,0,0,0-2.47.147c-2.117.676-4.676,4.47-5.911,8.676a135.058,135.058,0,0,1-5.676,15.7c-1.059,2.117-2.029,1.941-2.441-.471-.647-3.882.029-19.616,1.206-28.468.176-1.294.382-3.5.5-4.882l.176-2.529-1.029-.765A3.6,3.6,0,0,0,342.979-214.247ZM330.6-196.837a9.93,9.93,0,0,1,0,5c-.618,1.147-3.235,1.676-3.235.618a26.383,26.383,0,0,1,1.647-5.411C329.509-197.573,330.156-197.661,330.6-196.837Zm33.791,1.088c.735,2.823-.118,4.705-2.264,5-1.5.206-1.529.088-.618-2.97C362.742-197.867,363.653-198.514,364.388-195.749Zm52.642-.765a8.225,8.225,0,0,1,0,4.47,2.308,2.308,0,0,1-1.059,1.059c-.676.323-2.441.441-2.441.176a47.08,47.08,0,0,1,1.294-4.529C415.678-197.631,416.472-198.073,417.03-196.514Zm55.142,2.088c1.176,1.588,1.765,4.088,1.735,7.617-.029,2.47-.147,3.411-.618,4.5-.765,1.706-1.765,2.235-2.823,1.529-1.765-1.147-2.676-4.264-2.441-8.264.176-3.029.618-4.588,1.559-5.617C470.5-195.632,471.29-195.543,472.172-194.426Z" transform="translate(-218.843 -28.165)" fill="#a0a0a0"/>
    </g>
  </g>
</svg>
