<?xml version="1.0" encoding="UTF-8"?>
<svg width="220px" height="141px" viewBox="0 0 220 141" version="1.1" xmlns="http://www.w3.org/2000/svg" xmlns:xlink="http://www.w3.org/1999/xlink">
    <!-- Generator: Sketch 47.1 (45422) - http://www.bohemiancoding.com/sketch -->
    <title>Group 2</title>
    <desc>Created with Sketch.</desc>
    <defs></defs>
    <g id="Website" stroke="none" stroke-width="1" fill="none" fill-rule="evenodd">
        <g id="Group-2">
            <g id="Group" transform="translate(73.669725, 0.000000)">
                <ellipse id="Oval" fill="#FFD701" cx="36.3302752" cy="36.2571429" rx="36.3302752" ry="36.2571429"></ellipse>
                <path d="M42.1085976,40.1515182 C42.1085976,40.2418791 42.115066,40.3870999 42.1280032,40.5871848 C42.1409403,40.7872697 42.1797511,40.9905788 42.2444368,41.1971181 C42.3091225,41.4036573 42.4093838,41.5843765 42.5452238,41.7392809 C42.6810638,41.8941854 42.8783522,41.9716365 43.1370949,41.9716365 C43.5381462,41.9716365 43.8842095,41.8296428 44.1752951,41.5456513 C44.4663807,41.2616598 44.7186512,40.9066758 44.9321139,40.4806885 C45.1455767,40.0547013 45.3202255,39.593222 45.4560654,39.0962369 C45.5919054,38.5992518 45.7051037,38.1313182 45.7956636,37.6924223 C45.8732865,37.2922524 45.9929532,37.0018109 46.1546674,36.8210891 C46.3163817,36.6403672 46.4910304,36.5403262 46.6786189,36.5209632 C46.8662074,36.5016001 47.0570274,36.550007 47.2510844,36.6661854 C47.4451415,36.7823637 47.6133218,36.9340387 47.7556303,37.121215 C47.8979389,37.3083912 48.0046686,37.5181545 48.0758229,37.7505112 C48.1469772,37.9828678 48.1566799,38.2023125 48.1049313,38.4088518 C47.9238114,39.0671957 47.6877121,39.7578011 47.3966265,40.4806885 C47.1055409,41.203576 46.7336038,41.8683643 46.2808039,42.4750734 C45.828004,43.0817825 45.2846524,43.5852145 44.6507326,43.9853843 C44.0168128,44.3855542 43.2729385,44.5856361 42.4190873,44.5856361 C41.8886646,44.5856361 41.4197004,44.4855951 41.0121805,44.2855102 C40.6046607,44.0854253 40.2553632,43.8175737 39.9642775,43.4819474 C39.6731919,43.146321 39.4532639,42.7526115 39.3044868,42.3008068 C39.1557097,41.8490021 39.0813222,41.3713872 39.0813222,40.8679477 L39.0813222,31.515638 L32.6386594,31.4575491 L32.6386594,32.3482453 C33.5442591,33.4713026 34.3625209,34.6298414 35.0934692,35.8238966 C35.8244175,37.0179518 36.4453909,38.2733045 36.9564079,39.5899924 C37.4674248,40.9066802 37.8620016,42.2943452 38.1401501,43.7530288 C38.4182986,45.2117124 38.5573708,46.7607337 38.5573708,48.4001392 C38.5573708,50.0524534 38.4312355,51.5788849 38.1789613,52.9794793 C37.9266871,54.3800738 37.5709212,55.5870195 37.1116527,56.6003529 C36.6523843,57.6136862 36.0960957,58.4043325 35.4427702,58.9723155 C34.7894447,59.5402985 34.06821,59.8242857 33.2790446,59.8242857 C32.5804391,59.8242857 31.9982766,59.6532479 31.5325396,59.3111673 C31.0668026,58.9690866 30.6948655,58.5172887 30.416717,57.9557601 C30.1385685,57.3942314 29.9380459,56.7584872 29.815143,56.0485085 C29.6922402,55.3385297 29.6307897,54.6156531 29.6307897,53.879857 L29.6307897,32.1352527 C29.5919783,32.0965266 29.5499332,32.0513468 29.5046533,31.999712 C29.4593733,31.9480772 29.4173282,31.9028974 29.3785168,31.8641713 C29.0680255,31.5414537 28.7866469,31.2510122 28.5343727,30.9928381 C28.2820985,30.734664 28.1559633,30.4442225 28.1559633,30.1215049 C28.1559633,29.9149656 28.2271165,29.7148837 28.369425,29.5212531 C28.5117335,29.3276225 28.7445986,29.2114459 29.068027,29.1727198 C29.1327127,29.1727198 29.2071001,29.1662656 29.2911915,29.1533569 C29.3752829,29.1404482 29.4884812,29.1339939 29.6307897,29.1339939 L29.6307897,18.2520103 C29.6307897,17.9680188 29.6081501,17.7421199 29.5628701,17.5743067 C29.5175901,17.4064935 29.4723108,17.2741813 29.4270308,17.177366 C29.3817508,17.0805507 29.3364715,17.0030997 29.2911915,16.9450105 C29.2459116,16.8869213 29.2232719,16.8256059 29.2232719,16.7610624 C29.2232719,16.6836101 29.2620827,16.6190676 29.3397056,16.5674328 C29.4173284,16.5157979 29.520824,16.4706182 29.6501953,16.431892 C29.7795667,16.3931659 29.9186389,16.3641218 30.067416,16.3447587 C30.2161931,16.3253957 30.3617337,16.3157143 30.5040422,16.3157143 C31.1638363,16.3157143 31.6845483,16.4867521 32.0661939,16.8288327 C32.4478395,17.1709134 32.6386594,17.5807586 32.6386594,18.0583807 L32.6386594,28.9210013 C33.531322,28.8693665 34.3754576,28.804824 35.1710916,28.7273717 C35.9667257,28.6499195 36.6750234,28.5724684 37.296006,28.4950162 L38.8484549,28.3013866 C39.2624434,28.2497518 39.5276507,28.2239348 39.644085,28.2239348 C40.1874448,28.2239348 40.6208324,28.2852502 40.9442609,28.4078829 C41.2676894,28.5305156 41.5167255,28.691872 41.6913769,28.8919569 C41.8660283,29.0920418 41.9792266,29.3147136 42.0309751,29.559979 C42.0827237,29.8052444 42.1085976,30.0440519 42.1085976,30.2764085 L42.1085976,40.1515182 Z M35.5495011,48.4001392 C35.5495011,47.4965299 35.4880506,46.5542086 35.3651478,45.5731471 C35.2422449,44.5920855 35.0578935,43.5981302 34.8120878,42.5912512 C34.5662822,41.5843722 34.262264,40.5775084 33.9000241,39.5706294 C33.5377843,38.5637504 33.1173336,37.5827036 32.6386594,36.6274595 L32.6386594,53.879857 C32.6386594,54.1896659 32.6515964,54.5252871 32.6774706,54.8867309 C32.7033449,55.2481746 32.7518585,55.5773416 32.8230127,55.8742418 C32.894167,56.1711421 32.9911941,56.4196309 33.1140969,56.6197158 C33.2369997,56.8198007 33.3954773,56.9198417 33.5895344,56.9198417 C33.8741514,56.9198417 34.1393588,56.7133055 34.3851644,56.300227 C34.63097,55.8871484 34.8379612,55.3030383 35.006144,54.5478791 C35.1743268,53.7927199 35.3069304,52.8955783 35.403959,51.8564276 C35.5009875,50.8172769 35.5495011,49.6651923 35.5495011,48.4001392 Z M40.789016,24.4094316 C40.4655875,24.4094316 40.1583351,24.3448891 39.8672495,24.215802 C39.5761639,24.086715 39.3238935,23.9124501 39.1104307,23.6930021 C38.8969679,23.4735541 38.7255534,23.218611 38.596182,22.9281652 C38.4668106,22.6377193 38.4021259,22.3246879 38.4021259,21.9890616 C38.4021259,21.6405266 38.4668106,21.3178138 38.596182,21.0209136 C38.7255534,20.7240134 38.8969679,20.4690703 39.1104307,20.2560767 C39.3238935,20.043083 39.5761639,19.8752724 39.8672495,19.7526397 C40.1583351,19.630007 40.4655875,19.5686916 40.789016,19.5686916 C41.1383188,19.5686916 41.4617424,19.630007 41.7592966,19.7526397 C42.0568507,19.8752724 42.3123554,20.043083 42.5258182,20.2560767 C42.739281,20.4690703 42.9074613,20.7240134 43.0303641,21.0209136 C43.1532669,21.3178138 43.2147174,21.6405266 43.2147174,21.9890616 C43.2147174,22.3246879 43.1532669,22.6377193 43.0303641,22.9281652 C42.9074613,23.218611 42.739281,23.4735541 42.5258182,23.6930021 C42.3123554,23.9124501 42.0568507,24.086715 41.7592966,24.215802 C41.4617424,24.3448891 41.1383188,24.4094316 40.789016,24.4094316 Z" id="fi" fill="#212121"></path>
            </g>
            <g id="Group" transform="translate(0.000000, 92.657143)" fill="#212121">
                <path d="M4.94351786,17.2590065 L4.94351786,18.2212754 C5.94216071,19.4332397 6.84455357,20.677201 7.65069643,21.9531594 C8.45664286,23.2293142 9.14158929,24.5729966 9.70494643,25.9845992 C10.2685,27.3960055 10.7037857,28.8859324 11.0104107,30.4543798 C11.3172321,32.0226309 11.4706429,33.7121961 11.4706429,35.5228793 C11.4706429,37.3478925 11.331375,39.0339243 11.0532321,40.5807786 C10.7750893,42.1278291 10.382625,43.4609112 9.87623214,44.5800249 C9.36983929,45.6993349 8.75619643,46.5726794 8.03589286,47.1998621 C7.31539286,47.827241 6.52005357,48.1409305 5.64967857,48.1409305 C4.87928571,48.1409305 4.23716071,47.9520886 3.72369643,47.5742086 C3.21003571,47.1963286 2.79989286,46.6973307 2.49307143,46.0772149 C2.18644643,45.4569028 1.96526786,44.7547331 1.82973214,43.9705094 C1.69419643,43.186482 1.62642857,42.3879283 1.62642857,41.575241 L1.62642857,18.0075033 C1.58360714,17.9647097 1.53725,17.9148491 1.48735714,17.8577254 C1.43746429,17.8007981 1.39110714,17.7436744 1.34828571,17.686747 C1.00591071,17.3443975 0.695553571,17.0271746 0.417214286,16.734882 C0.139071429,16.4425894 0,16.1182996 0,15.7618165 C0,15.5480444 0.078375,15.3305425 0.235321429,15.1095073 C0.392267857,14.8886683 0.649196429,14.7567538 1.00591071,14.7139601 C1.07721429,14.7139601 1.16266071,14.7068933 1.26264286,14.6925633 C1.36242857,14.6782333 1.48382143,14.6711665 1.62642857,14.6711665 L1.62642857,2.22429002 C1.62642857,1.91060054 1.60148214,1.66110159 1.55158929,1.47579316 C1.5015,1.29048474 1.45160714,1.14424027 1.40171429,1.03725606 C1.35182143,0.930468156 1.30192857,0.84488079 1.25183929,0.780690265 C1.20194643,0.71649974 1.177,0.648775792 1.177,0.577518421 C1.177,0.491931055 1.21982143,0.420673683 1.30546429,0.363746306 C1.39110714,0.306622629 1.50523214,0.256762099 1.64783929,0.213968416 C1.79044643,0.171174732 1.94385714,0.139177621 2.107875,0.117780779 C2.27208929,0.0963839377 2.43257143,0.0855873662 2.58951786,0.0855873662 C3.31708929,0.0855873662 3.89125,0.274625517 4.31219643,0.652309216 C4.73294643,1.03018922 4.94351786,1.48286001 4.94351786,2.0103216 L4.94351786,14.4146007 C5.45698214,14.371807 5.97064286,14.3325467 6.48430357,14.2968199 C6.99796429,14.2612894 7.49728571,14.2255625 7.98226786,14.190032 C8.46744643,14.1543051 8.91314286,14.1293749 9.31975,14.1150449 C9.72635714,14.1009112 10.0795357,14.093648 10.3790893,14.093648 C10.8642679,14.093648 11.2850179,14.1864986 11.6417321,14.371807 C11.9984464,14.5571154 12.1768036,14.8778717 12.1768036,15.3340759 C12.1768036,15.4909207 12.1589286,15.7190228 12.1231786,16.0185786 C12.087625,16.3179381 12.0377321,16.6245607 11.9735,16.9380539 C11.9092679,17.2517433 11.823625,17.5226391 11.7165714,17.7507412 C11.6097143,17.9788433 11.4847857,18.0930907 11.3421786,18.0930907 C11.270875,18.0930907 11.21725,18.0679641 11.1816964,18.0181036 C11.1459464,17.9682431 11.0889821,17.9148491 11.0104107,17.8577254 C10.9320357,17.8007981 10.8179107,17.7436744 10.6680357,17.686747 C10.5181607,17.6296233 10.2934464,17.5868297 9.99389286,17.558366 L4.94351786,17.2590065 Z M8.15355357,35.5228793 C8.15355357,34.5248835 8.08578571,33.4946943 7.95025,32.432508 C7.81471429,31.3703216 7.61141071,30.2940016 7.34033929,29.2031553 C7.06926786,28.1125053 6.73396429,27.0289221 6.33442857,25.9526021 C5.93508929,24.8760858 5.47132143,23.8317629 4.94351786,22.8194371 L4.94351786,41.575241 C4.94351786,41.9173941 4.95766071,42.2882073 4.98633929,42.6874841 C5.01482143,43.0865647 5.06825,43.4501147 5.14682143,43.7781341 C5.22519643,44.1059573 5.33225,44.3803865 5.46778571,44.6014218 C5.60332143,44.822457 5.77814286,44.9329747 5.99205357,44.9329747 C6.30594643,44.9329747 6.59842857,44.7048726 6.8695,44.2486683 C7.14057143,43.7922678 7.36882143,43.1472218 7.55425,42.3131375 C7.73967857,41.4790533 7.88601786,40.4881244 7.99307143,39.3403507 C8.09992857,38.1927733 8.15355357,36.920152 8.15355357,35.5228793 Z" id="Fill-1"></path>
                <path d="M22.9200714,31.3098608 C22.4064107,31.3098608 21.8821429,31.2313403 21.3470714,31.0744956 C20.8121964,30.9176508 20.3270179,30.6467551 19.8919286,30.2618082 C19.4568393,29.8768614 19.100125,29.3672632 18.8217857,28.7328174 C18.5436429,28.0983716 18.4045714,27.2962845 18.4045714,26.3267524 C18.4045714,24.915346 18.5935357,23.4216895 18.9716607,21.8463715 C19.3497857,20.2708573 19.8954643,18.5349649 20.6088929,16.6386944 L17.2703929,16.6386944 L16.7781429,16.6386944 C16.7638036,17.0664349 16.7388571,17.6082265 16.7033036,18.2640691 C16.6675536,18.9199118 16.6068571,19.6185481 16.5214107,20.3599781 C16.4357679,21.1014081 16.3251786,21.849905 16.1896429,22.6054687 C16.0541071,23.3612287 15.8865536,24.059865 15.6867857,24.7013776 C15.5439821,25.1575818 15.3192679,25.4214108 15.0126429,25.4926682 C14.7058214,25.5639255 14.4027321,25.5105316 14.1031786,25.33229 C13.8034286,25.1540484 13.5610357,24.8939492 13.3754107,24.551796 C13.1899821,24.2094466 13.1471607,23.8531597 13.2471429,23.4823466 C13.3612679,23.0404723 13.4610536,22.5022142 13.5466964,21.8677684 C13.6323393,21.2333226 13.7001071,20.5631499 13.75,19.8574468 C13.7998929,19.1515473 13.8391786,18.4458441 13.8676607,17.740141 C13.8963393,17.0344378 13.9175536,16.4035254 13.9318929,15.8474038 C13.38975,15.5480444 12.9403214,15.1666309 12.5836071,14.7031636 C12.2270893,14.2398925 12.0487321,13.6873044 12.0487321,13.0457917 C12.0487321,12.7464322 12.1092321,12.472003 12.230625,12.2225041 C12.3518214,11.9730051 12.5123036,11.7590367 12.7120714,11.5807951 C12.9118393,11.4025535 13.1471607,11.2671056 13.4182321,11.1744514 C13.6893036,11.0817972 13.9676429,11.0354701 14.2528571,11.0354701 C14.5097857,11.0354701 14.777125,11.0711969 15.0554643,11.1424543 C15.3336071,11.2137117 15.5976071,11.3420927 15.8472679,11.5274012 C16.0969286,11.7127096 16.3216429,11.9551417 16.5214107,12.2545012 C16.7211786,12.5538607 16.8851964,12.9246738 17.0134643,13.366548 C17.3701786,13.4093417 17.6734643,13.4415351 17.923125,13.462932 C18.1727857,13.4841325 18.3831607,13.5019959 18.5544464,13.5163259 C18.7255357,13.5306559 18.8683393,13.5377228 18.9824643,13.5377228 L21.6146071,13.5377228 C21.7430714,13.5377228 21.9320357,13.616047 22.1816964,13.7728917 C22.4313571,13.9297365 22.6774821,14.1329083 22.9200714,14.3824073 C23.1626607,14.6319062 23.3659643,14.8992686 23.5299821,15.1844944 C23.694,15.4695238 23.7546964,15.7404196 23.711875,15.9971817 C23.711875,16.0827691 23.6619821,16.2894744 23.562,16.6172975 C23.4622143,16.945317 23.3408214,17.3587275 23.1982143,17.8577254 C23.0556071,18.3567233 22.8986607,18.9307083 22.727375,19.5792878 C22.5562857,20.2280636 22.3993393,20.9088365 22.2565357,21.6218028 C22.1139286,22.3345729 21.9927321,23.0724694 21.89275,23.8352963 C21.7929643,24.5981231 21.7430714,25.3430866 21.7430714,26.0701866 C21.7430714,26.3695461 21.778625,26.6618387 21.8499286,26.9470645 C21.9214286,27.232094 22.0282857,27.4851263 22.1710893,27.7061616 C22.3136964,27.9271969 22.4955893,28.101905 22.7167679,28.2300898 C22.9379464,28.3584708 23.1982143,28.4226613 23.4977679,28.4226613 C23.9970893,28.4226613 24.4251071,28.2658166 24.7818214,27.9521271 C25.1385357,27.6384377 25.4380893,27.246424 25.6806786,26.7758897 C25.9232679,26.3053555 26.1193036,25.7957574 26.2691786,25.2467026 C26.4190536,24.6978442 26.5437857,24.1809829 26.6437679,23.696315 C26.7292143,23.2399145 26.8720179,22.9085579 27.0717857,22.7018526 C27.2713571,22.494951 27.4783929,22.3916965 27.6923036,22.3916965 C27.8635893,22.3916965 28.04175,22.4450905 28.227375,22.5520747 C28.4128036,22.6590589 28.5803571,22.7980402 28.7302321,22.9690187 C28.8801071,23.1401934 29.0013036,23.332765 29.0940179,23.5465371 C29.1867321,23.7603092 29.2330893,23.9742776 29.2330893,24.1880497 C29.2330893,24.2595034 29.2260179,24.3164308 29.2116786,24.3592245 C29.1975357,24.4020181 29.1902679,24.4448118 29.1902679,24.4876055 C28.9905,25.2147055 28.7302321,25.9775324 28.4092679,26.7758897 C28.0881071,27.5742471 27.6779643,28.3086103 27.1786429,28.9787829 C26.6793214,29.6487593 26.0802143,30.2048808 25.381125,30.6467551 C24.6820357,31.0888256 23.8615536,31.3098608 22.9200714,31.3098608 Z" id="Fill-2"></path>
                <path d="M36.9161964,17.3443975 C36.9161964,18.1570849 36.777125,18.9911691 36.4987857,19.8466502 C36.2206429,20.7021313 35.8069643,21.5112852 35.2575536,22.2741121 C34.7083393,23.0367426 34.0306607,23.7212452 33.2245179,24.3272273 C32.4185714,24.9330132 31.4876964,25.3929471 30.4318929,25.7066366 C30.5745,26.0772534 30.7634643,26.4302032 30.9989821,26.7652895 C31.2343036,27.1001795 31.5161786,27.3889387 31.8442143,27.6313708 C32.1724464,27.8738029 32.5541071,28.0661782 32.9891964,28.2086929 C33.4242857,28.351404 33.9271429,28.4226613 34.4979643,28.4226613 C35.354,28.4226613 36.0886429,28.2622832 36.7020893,27.9415269 C37.3155357,27.6205742 37.8327321,27.1965634 38.2536786,26.6689055 C38.674625,26.1414439 39.0134643,25.5497918 39.2701964,24.8939492 C39.5269286,24.2381066 39.719625,23.5750008 39.8478929,22.9050244 C39.947875,22.4201602 40.1511786,22.0958705 40.4578036,21.9319589 C40.764625,21.767851 41.0785179,21.7287871 41.3994821,21.8141781 C41.7204464,21.8997655 41.9987857,22.0815405 42.2341071,22.3595031 C42.4694286,22.6376621 42.565875,22.9690187 42.5230536,23.3539655 C42.4658929,23.796036 42.3696429,24.3021008 42.2341071,24.8725524 C42.0985714,25.4428076 41.8952679,26.020326 41.6241964,26.604715 C41.353125,27.1893003 41.0072143,27.7632853 40.5862679,28.3264737 C40.1655179,28.8896621 39.6483214,29.3921935 39.0346786,29.8340677 C38.4212321,30.2761382 37.7007321,30.6326214 36.873375,30.9035172 C36.0458214,31.1744129 35.0970714,31.3098608 34.027125,31.3098608 C33.0284821,31.3098608 32.0618571,31.1137558 31.1274464,30.7217422 C30.1928393,30.3295322 29.3654821,29.7663437 28.6449821,29.0321769 C27.9244821,28.2978137 27.3465893,27.3924721 26.9115,26.3161521 C26.4764107,25.2396358 26.2587679,24.0170713 26.2587679,22.6482623 C26.2587679,21.2653197 26.4514643,19.9785647 26.8366607,18.7879973 C27.2218571,17.5976262 27.72825,16.567437 28.3560357,15.697626 C28.9838214,14.8280112 29.6970536,14.1472383 30.496125,13.6553072 C31.295,13.1633762 32.1152857,12.9174107 32.9571786,12.9174107 C33.570625,12.9174107 34.123375,13.0243949 34.615625,13.2383633 C35.107875,13.4521354 35.5250893,13.7550283 35.8674643,14.1472383 C36.2098393,14.539252 36.4703036,15.0062528 36.6486607,15.5480444 C36.8270179,16.0898359 36.9161964,16.6885549 36.9161964,17.3443975 Z M29.854,22.5200776 C29.854,22.6482623 29.8612679,22.7766434 29.8754107,22.9050244 C29.88975,23.0332092 29.8968214,23.1686571 29.8968214,23.3113681 C30.4389643,23.054606 30.9312143,22.7267829 31.373375,22.327506 C31.8157321,21.9282292 32.1938571,21.472025 32.50775,20.9586971 C32.8216429,20.4455655 33.0640357,19.8859105 33.2353214,19.2799284 C33.4064107,18.6739462 33.4920536,18.0430339 33.4920536,17.3871912 C33.4920536,16.9025233 33.4101429,16.5246433 33.2459286,16.2537475 C33.0819107,15.9828517 32.8571964,15.8474038 32.5717857,15.8474038 C32.2152679,15.8474038 31.8978393,15.9685217 31.6195,16.2109538 C31.3413571,16.453386 31.0987679,16.7706089 30.8919286,17.1626225 C30.6850893,17.5548325 30.5138036,17.9967068 30.3782679,18.4886378 C30.2427321,18.9805689 30.1323393,19.4760334 30.0466964,19.9750313 C29.9610536,20.4740292 29.9038929,20.9480968 29.8754107,21.3972342 C29.8469286,21.8463715 29.8398571,22.2205218 29.854,22.5200776 Z" id="Fill-3"></path>
                <path d="M49.9278214,17.3443975 C49.9278214,18.1570849 49.78875,18.9911691 49.5106071,19.8466502 C49.2322679,20.7021313 48.8185893,21.5112852 48.269375,22.2741121 C47.7199643,23.0367426 47.0422857,23.7212452 46.2363393,24.3272273 C45.4301964,24.9330132 44.4993214,25.3929471 43.4435179,25.7066366 C43.586125,26.0772534 43.7752857,26.4302032 44.0106071,26.7652895 C44.246125,27.1001795 44.5278036,27.3889387 44.8560357,27.6313708 C45.1840714,27.8738029 45.5657321,28.0661782 46.0008214,28.2086929 C46.4361071,28.351404 46.9389643,28.4226613 47.5095893,28.4226613 C48.365625,28.4226613 49.1002679,28.2622832 49.7139107,27.9415269 C50.3273571,27.6205742 50.8445536,27.1965634 51.2653036,26.6689055 C51.68625,26.1414439 52.0250893,25.5497918 52.2818214,24.8939492 C52.53875,24.2381066 52.73125,23.5750008 52.8597143,22.9050244 C52.9595,22.4201602 53.1628036,22.0958705 53.469625,21.9319589 C53.77625,21.767851 54.0901429,21.7287871 54.4111071,21.8141781 C54.7322679,21.8997655 55.0104107,22.0815405 55.2457321,22.3595031 C55.48125,22.6376621 55.5775,22.9690187 55.5346786,23.3539655 C55.4777143,23.796036 55.3812679,24.3021008 55.2457321,24.8725524 C55.1101964,25.4428076 54.9068929,26.020326 54.6358214,26.604715 C54.36475,27.1893003 54.0188393,27.7632853 53.5978929,28.3264737 C53.1771429,28.8896621 52.6599464,29.3921935 52.0465,29.8340677 C51.4330536,30.2761382 50.7125536,30.6326214 49.885,30.9035172 C49.0576429,31.1744129 48.1088929,31.3098608 47.03875,31.3098608 C46.0401071,31.3098608 45.0734821,31.1137558 44.1390714,30.7217422 C43.2046607,30.3295322 42.3771071,29.7663437 41.6566071,29.0321769 C40.9361071,28.2978137 40.3584107,27.3924721 39.923125,26.3161521 C39.4880357,25.2396358 39.2705893,24.0170713 39.2705893,22.6482623 C39.2705893,21.2653197 39.4630893,19.9785647 39.8482857,18.7879973 C40.2334821,17.5976262 40.7400714,16.567437 41.3676607,15.697626 C41.9954464,14.8280112 42.708875,14.1472383 43.50775,13.6553072 C44.306625,13.1633762 45.1271071,12.9174107 45.9688036,12.9174107 C46.58225,12.9174107 47.1351964,13.0243949 47.62725,13.2383633 C48.1195,13.4521354 48.5369107,13.7550283 48.8792857,14.1472383 C49.2216607,14.539252 49.4819286,15.0062528 49.6602857,15.5480444 C49.8386429,16.0898359 49.9278214,16.6885549 49.9278214,17.3443975 Z M42.8658214,22.5200776 C42.8658214,22.6482623 42.8728929,22.7766434 42.8872321,22.9050244 C42.901375,23.0332092 42.9084464,23.1686571 42.9084464,23.3113681 C43.4505893,23.054606 43.9428393,22.7267829 44.3851964,22.327506 C44.8273571,21.9282292 45.2054821,21.472025 45.519375,20.9586971 C45.8332679,20.4455655 46.0758571,19.8859105 46.2469464,19.2799284 C46.4182321,18.6739462 46.503875,18.0430339 46.503875,17.3871912 C46.503875,16.9025233 46.4217679,16.5246433 46.25775,16.2537475 C46.0935357,15.9828517 45.8688214,15.8474038 45.5836071,15.8474038 C45.2268929,15.8474038 44.9094643,15.9685217 44.6313214,16.2109538 C44.3529821,16.453386 44.1105893,16.7706089 43.90375,17.1626225 C43.6967143,17.5548325 43.525625,17.9967068 43.3900893,18.4886378 C43.2545536,18.9805689 43.1439643,19.4760334 43.0583214,19.9750313 C42.9726786,20.4740292 42.9157143,20.9480968 42.8872321,21.3972342 C42.8585536,21.8463715 42.8514821,22.2205218 42.8658214,22.5200776 Z" id="Fill-4"></path>
                <path d="M64.8231964,9.02514851 C64.4664821,9.02514851 64.1276429,8.95389114 63.8066786,8.81137639 C63.4857143,8.66866535 63.2075714,8.47629008 62.9720536,8.23385797 C62.7367321,7.99142587 62.5475714,7.70992981 62.4049643,7.38917349 C62.2623571,7.06822086 62.1910536,6.72253428 62.1910536,6.35191742 C62.1910536,5.96697058 62.2623571,5.61048742 62.4049643,5.28246795 C62.5475714,4.95464478 62.7367321,4.67295242 62.9720536,4.43778346 C63.2075714,4.2024182 63.4857143,4.01710978 63.8066786,3.88166188 C64.1276429,3.74621398 64.4664821,3.67849004 64.8231964,3.67849004 C65.2083929,3.67849004 65.5651071,3.74621398 65.8931429,3.88166188 C66.221375,4.01710978 66.5030536,4.2024182 66.7385714,4.43778346 C66.9738929,4.67295242 67.1593214,4.95464478 67.2948571,5.28246795 C67.4303929,5.61048742 67.4981607,5.96697058 67.4981607,6.35191742 C67.4981607,6.72253428 67.4303929,7.06822086 67.2948571,7.38917349 C67.1593214,7.70992981 66.9738929,7.99142587 66.7385714,8.23385797 C66.5030536,8.47629008 66.221375,8.66866535 65.8931429,8.81137639 C65.5651071,8.95389114 65.2083929,9.02514851 64.8231964,9.02514851 Z M65.8291071,26.4123397 C65.8291071,26.5120608 65.8361786,26.672439 65.8505179,26.8934742 C65.8646607,27.1145095 65.9074821,27.3390782 65.9787857,27.5671803 C66.0500893,27.7952824 66.1642143,27.9949208 66.3211607,28.1660955 C66.4781071,28.337074 66.6992857,28.4226613 66.9846964,28.4226613 C67.4127143,28.4226613 67.7871071,28.2658166 68.1080714,27.9521271 C68.4292321,27.6384377 68.707375,27.246424 68.9426964,26.7758897 C69.1782143,26.3053555 69.37425,25.7957574 69.5311964,25.2467026 C69.6881429,24.6978442 69.8166071,24.1809829 69.9163929,23.696315 C70.0020357,23.2542444 70.1340357,22.9334881 70.3123929,22.7338497 C70.49075,22.5342113 70.68325,22.4236937 70.8902857,22.4022968 C71.097125,22.3809 71.3039643,22.4344902 71.5108036,22.562675 C71.7176429,22.691056 71.9030714,22.8586973 72.0672857,23.0654026 C72.2313036,23.2721079 72.3525,23.5037434 72.4310714,23.7603092 C72.5094464,24.0170713 72.52025,24.2595034 72.4630893,24.4876055 C72.2633214,25.2147055 72.0030536,25.9775324 71.6820893,26.7758897 C71.3609286,27.5742471 70.9507857,28.3086103 70.4514643,28.9787829 C69.9521429,29.6487593 69.3528393,30.2048808 68.6539464,30.6467551 C67.9548571,31.0888256 67.134375,31.3098608 66.1928929,31.3098608 C65.6079286,31.3098608 65.0871964,31.1993432 64.6306964,30.9783079 C64.174,30.7572727 63.7888036,30.4614466 63.4749107,30.0908298 C63.1612143,29.7200166 62.9221607,29.2852092 62.7581429,28.7862113 C62.5939286,28.2872134 62.5120179,27.7597519 62.5120179,27.2036303 L62.5120179,15.5052507 C62.5120179,15.0918401 62.4798036,14.7922844 62.4157679,14.6069759 C62.3515357,14.4216675 62.3193214,14.2504928 62.3193214,14.093648 C62.3193214,13.8798759 62.4334464,13.7051678 62.6616964,13.5697199 C62.8901429,13.434272 63.1612143,13.366548 63.4749107,13.366548 C64.2026786,13.366548 64.7768393,13.5555862 65.1977857,13.9332699 C65.6185357,14.3111499 65.8291071,14.7638207 65.8291071,15.2912823 L65.8291071,26.4123397 Z" id="Fill-5"></path>
                <path d="M73.4049643,17.1306254 C73.5619107,16.831266 73.7153214,16.4284557 73.8651964,15.9221946 C74.014875,15.4161299 74.1576786,14.8564749 74.2932143,14.2434259 C74.42875,13.630377 74.5534821,12.9888643 74.6676071,12.3186917 C74.7817321,11.6485191 74.8817143,10.9926764 74.9673571,10.3511638 C75.0528036,9.70945484 75.1205714,9.10720245 75.1706607,8.54401403 C75.2205536,7.9808256 75.2455,7.49949482 75.2455,7.10041428 C75.2455,5.64601795 75.1384464,4.5802982 74.9245357,3.90305872 C74.7104286,3.22581924 74.4252143,2.8871995 74.0685,2.8871995 C73.954375,2.8871995 73.8543929,2.94432318 73.7689464,3.05837423 C73.6833036,3.17242529 73.612,3.31847345 73.5548393,3.49671503 C73.497875,3.67495661 73.4585893,3.86752819 73.4371786,4.07423345 C73.4157679,4.28093872 73.4049643,4.46978057 73.4049643,4.6409553 L73.4049643,17.1306254 Z M79.6325357,23.7391087 C79.7181786,23.3113681 79.8501786,23.0012121 80.0283393,22.8086405 C80.2066964,22.6162652 80.3993929,22.509281 80.6062321,22.4878842 C80.8130714,22.4664873 81.0236429,22.5163479 81.2375536,22.6376621 C81.4514643,22.75878 81.6370893,22.9191581 81.7940357,23.1187966 C81.9509821,23.318435 82.0686429,23.5430037 82.1470179,23.7925026 C82.2255893,24.0420016 82.2361964,24.2879671 82.1792321,24.5303992 C81.9794643,25.1147882 81.6940536,25.7992908 81.3231964,26.5833182 C80.9521429,27.3675419 80.4815,28.1089719 79.9106786,28.8076082 C79.3400536,29.5062445 78.6694464,30.0978966 77.8990536,30.5827608 C77.1286607,31.0674287 76.2441429,31.3098608 75.2455,31.3098608 C74.4038036,31.3098608 73.6618929,31.1708795 73.0197679,30.8927206 C72.3778393,30.6147579 71.8392321,30.2227442 71.4041429,29.7164832 C70.9690536,29.2104185 70.6408214,28.6044363 70.4196429,27.8987332 C70.1986607,27.1928337 70.0880714,26.4052729 70.0880714,25.5354618 L70.0880714,5.60342057 C70.0880714,4.79073319 70.1913929,4.03850662 70.3982321,3.34713344 C70.6052679,2.65556397 70.8904821,2.06391185 71.2542679,1.5719808 C71.6180536,1.08004975 72.0425357,0.695102899 72.5277143,0.41714026 C73.0126964,0.139177621 73.5263571,0 74.0685,0 C74.7104286,0 75.2525714,0.117780779 75.6949286,0.352949735 C76.1370893,0.588118691 76.500875,0.898274743 76.7862857,1.28322159 C77.0716964,1.66816844 77.2964107,2.11023896 77.4604286,2.60923686 C77.6244464,3.10823476 77.7421071,3.61802924 77.8134107,4.13842398 C77.8849107,4.65881872 77.9277321,5.17195032 77.941875,5.67821137 C77.9562143,6.18427611 77.9632857,6.64421006 77.9632857,7.05762059 C77.9632857,8.12687377 77.8635,9.24971719 77.6637321,10.4259546 C77.4639643,11.602192 77.2107679,12.7605659 76.9039464,13.9012728 C76.5973214,15.0417833 76.2620179,16.1361631 75.8982321,17.1840194 C75.5344464,18.232072 75.1848036,19.1623439 74.8495,19.9750313 C74.5141964,20.7877186 74.2146429,21.4506281 73.9508393,21.963956 C73.6868393,22.4772839 73.5049464,22.7766434 73.4049643,22.8622308 L73.4049643,25.4070808 C73.4049643,26.2912218 73.5905893,27.0147884 73.9614464,27.5779769 C74.3323036,28.140969 74.9245357,28.4226613 75.73775,28.4226613 C76.2370714,28.4226613 76.7041786,28.26935 77.1394643,27.9629237 C77.5745536,27.6563011 77.95975,27.2713542 78.2950536,26.8078869 C78.6303571,26.3446158 78.9120357,25.8383547 79.1402857,25.2894963 C79.3685357,24.7406379 79.53275,24.2237766 79.6325357,23.7391087 Z" id="Fill-6"></path>
                <path d="M83.056875,17.1306254 C83.2138214,16.831266 83.3672321,16.4284557 83.5169107,15.9221946 C83.6667857,15.4161299 83.8093929,14.8564749 83.9449286,14.2434259 C84.0804643,13.630377 84.2053929,12.9888643 84.3195179,12.3186917 C84.4336429,11.6485191 84.5334286,10.9926764 84.6190714,10.3511638 C84.7047143,9.70945484 84.7724821,9.10720245 84.822375,8.54401403 C84.8722679,7.9808256 84.8974107,7.49949482 84.8974107,7.10041428 C84.8974107,5.64601795 84.7903571,4.5802982 84.57625,3.90305872 C84.3623393,3.22581924 84.0769286,2.8871995 83.7202143,2.8871995 C83.6060893,2.8871995 83.5063036,2.94432318 83.4206607,3.05837423 C83.3350179,3.17242529 83.2637143,3.31847345 83.20675,3.49671503 C83.1495893,3.67495661 83.1103036,3.86752819 83.0890893,4.07423345 C83.0676786,4.28093872 83.056875,4.46978057 83.056875,4.6409553 L83.056875,17.1306254 Z M89.2844464,23.7391087 C89.3698929,23.3113681 89.5018929,23.0012121 89.68025,22.8086405 C89.8586071,22.6162652 90.0513036,22.509281 90.2581429,22.4878842 C90.4649821,22.4664873 90.6753571,22.5163479 90.8894643,22.6376621 C91.103375,22.75878 91.2888036,22.9191581 91.44575,23.1187966 C91.6026964,23.318435 91.7203571,23.5430037 91.7989286,23.7925026 C91.8773036,24.0420016 91.8881071,24.2879671 91.8309464,24.5303992 C91.631375,25.1147882 91.3459643,25.7992908 90.9749107,26.5833182 C90.6040536,27.3675419 90.1332143,28.1089719 89.5625893,28.8076082 C88.9919643,29.5062445 88.3213571,30.0978966 87.5509643,30.5827608 C86.7805714,31.0674287 85.8960536,31.3098608 84.8974107,31.3098608 C84.0555179,31.3098608 83.3136071,31.1708795 82.6716786,30.8927206 C82.02975,30.6147579 81.4911429,30.2227442 81.0560536,29.7164832 C80.6207679,29.2104185 80.2927321,28.6044363 80.0715536,27.8987332 C79.850375,27.1928337 79.7397857,26.4052729 79.7397857,25.5354618 L79.7397857,5.60342057 C79.7397857,4.79073319 79.8433036,4.03850662 80.0501429,3.34713344 C80.2569821,2.65556397 80.5423929,2.06391185 80.9061786,1.5719808 C81.2699643,1.08004975 81.6944464,0.695102899 82.1794286,0.41714026 C82.6646071,0.139177621 83.1780714,0 83.7202143,0 C84.3623393,0 84.9044821,0.117780779 85.3466429,0.352949735 C85.789,0.588118691 86.1527857,0.898274743 86.4381964,1.28322159 C86.7234107,1.66816844 86.948125,2.11023896 87.1123393,2.60923686 C87.2763571,3.10823476 87.3940179,3.61802924 87.4653214,4.13842398 C87.536625,4.65881872 87.5794464,5.17195032 87.5937857,5.67821137 C87.6079286,6.18427611 87.6151964,6.64421006 87.6151964,7.05762059 C87.6151964,8.12687377 87.5152143,9.24971719 87.3156429,10.4259546 C87.115875,11.602192 86.8626786,12.7605659 86.5558571,13.9012728 C86.2490357,15.0417833 85.9139286,16.1361631 85.5499464,17.1840194 C85.1861607,18.232072 84.8367143,19.1623439 84.5014107,19.9750313 C84.1661071,20.7877186 83.8665536,21.4506281 83.6025536,21.963956 C83.33875,22.4772839 83.1568571,22.7766434 83.056875,22.8622308 L83.056875,25.4070808 C83.056875,26.2912218 83.2423036,27.0147884 83.6133571,27.5779769 C83.9842143,28.140969 84.57625,28.4226613 85.3894643,28.4226613 C85.8887857,28.4226613 86.3560893,28.26935 86.7911786,27.9629237 C87.2264643,27.6563011 87.6116607,27.2713542 87.9467679,26.8078869 C88.2820714,26.3446158 88.5639464,25.8383547 88.7921964,25.2894963 C89.0204464,24.7406379 89.1844643,24.2237766 89.2844464,23.7391087 Z" id="Fill-7"></path>
                <path d="M101.440036,31.3098608 C100.940714,31.3098608 100.48775,31.2313403 100.081143,31.0744956 C99.6745357,30.9176508 99.3178214,30.7003453 99.0111964,30.4221864 C98.704375,30.1442237 98.4511786,29.8164006 98.2514107,29.4385206 C98.0516429,29.0606406 97.9161071,28.6507634 97.8448036,28.2086929 C97.317,29.1354314 96.6962857,29.8911914 95.9830536,30.4757766 C95.269625,31.0603619 94.4279286,31.3526545 93.4577679,31.3526545 C92.7301964,31.3526545 92.0774643,31.2028766 91.4995714,30.9035172 C90.921875,30.6041577 90.4331607,30.1799506 90.033625,29.6308958 C89.6342857,29.0820374 89.331,28.4191279 89.1241607,27.6419711 C88.9173214,26.8650105 88.8138036,25.9989292 88.8138036,25.0435308 C88.8138036,23.8886902 88.8959107,22.7267829 89.0599286,21.5576123 C89.2241429,20.3884418 89.4060357,19.3333223 89.6056071,18.3924502 C89.8340536,17.294537 90.0978571,16.2323507 90.3976071,15.2058912 C90.4689107,15.0203865 90.5223393,14.8315446 90.5580893,14.6391694 C90.5936429,14.4465978 90.67575,14.2718896 90.8042143,14.1150449 C90.9324821,13.9582001 91.1357857,13.8300154 91.414125,13.730098 C91.6922679,13.630377 92.1238214,13.5805164 92.7087857,13.5805164 C93.2509286,13.5805164 93.600375,13.6767041 93.7573214,13.8692757 C93.9142679,14.0616509 93.9749643,14.2862196 93.9392143,14.5427854 C93.9036607,14.7995475 93.8180179,15.0631802 93.6824821,15.3340759 C93.5469464,15.6049717 93.4577679,15.826007 93.4149464,15.9971817 C93.2151786,16.8098691 93.0368214,17.5512991 92.879875,18.2212754 C92.7229286,18.8914481 92.591125,19.5651541 92.4840714,20.2423936 C92.3770179,20.9196331 92.2949107,21.6253363 92.2379464,22.3595031 C92.1807857,23.0938663 92.1523036,23.9171539 92.1523036,24.8297587 C92.1523036,26.0273929 92.327125,26.9327345 92.6765714,27.5457834 C93.0262143,28.1588324 93.522,28.465455 94.1639286,28.465455 C94.6062857,28.465455 95.0164286,28.3015434 95.3945536,27.973524 C95.7724821,27.6457008 96.1150536,27.2071637 96.4216786,26.6583053 C96.7285,26.1092505 96.9960357,25.4820679 97.2242857,24.7761684 C97.4525357,24.0704652 97.6308929,23.332765 97.7591607,22.562675 L97.7591607,15.5052507 C97.7591607,15.1915612 97.7342143,14.9420623 97.6843214,14.7567538 C97.6344286,14.5714454 97.5845357,14.4252009 97.5344464,14.3182167 C97.4845536,14.2114288 97.4346607,14.1258415 97.3847679,14.0616509 C97.334875,13.9974604 97.3097321,13.9226696 97.3097321,13.8370822 C97.3097321,13.7658249 97.3525536,13.7016343 97.4381964,13.644707 C97.5238393,13.5875833 97.6379643,13.5377228 97.7805714,13.4949291 C97.923375,13.4521354 98.0765893,13.4201383 98.2408036,13.3987414 C98.4048214,13.3773446 98.5653036,13.366548 98.72225,13.366548 C99.4498214,13.366548 100.024179,13.5555862 100.444929,13.9332699 C100.865875,14.3111499 101.07625,14.7638207 101.07625,15.2912823 L101.07625,26.4123397 C101.07625,26.5120608 101.083321,26.672439 101.097661,26.8934742 C101.112,27.1145095 101.154821,27.3390782 101.226125,27.5671803 C101.297429,27.7952824 101.411554,27.9949208 101.5685,28.1660955 C101.725446,28.337074 101.946625,28.4226613 102.231839,28.4226613 C102.674196,28.4226613 103.055857,28.2658166 103.376821,27.9521271 C103.697786,27.6384377 103.975929,27.246424 104.211446,26.7758897 C104.446768,26.3053555 104.639464,25.7957574 104.789143,25.2467026 C104.939018,24.6978442 105.063946,24.1809829 105.163732,23.696315 C105.249375,23.2399145 105.391982,22.9085579 105.59175,22.7018526 C105.791518,22.494951 105.998357,22.3916965 106.212268,22.3916965 C106.383554,22.3916965 106.561911,22.4450905 106.747339,22.5520747 C106.932768,22.6590589 107.100518,22.7980402 107.250196,22.9690187 C107.400071,23.1401934 107.521268,23.332765 107.613982,23.5465371 C107.706696,23.7603092 107.75325,23.9742776 107.75325,24.1880497 L107.75325,24.2950339 C107.75325,24.3378276 107.738911,24.4020181 107.710429,24.4876055 C107.510661,25.2147055 107.250196,25.9775324 106.929232,26.7758897 C106.608268,27.5742471 106.198125,28.3086103 105.698804,28.9787829 C105.199482,29.6487593 104.600179,30.2048808 103.901089,30.6467551 C103.202,31.0888256 102.381714,31.3098608 101.440036,31.3098608 Z" id="Fill-8"></path>
                <path d="M107.817679,24.0812618 C107.703554,24.537466 107.489446,24.8189621 107.17575,24.9259463 C106.861857,25.0329305 106.5515,25.0221339 106.244679,24.8939492 C105.938054,24.7655681 105.681125,24.5445329 105.474286,24.2308434 C105.267446,23.9171539 105.20675,23.5750008 105.292393,23.2043839 C105.5065,22.2348518 105.816661,21.1618689 106.223268,19.9856315 C106.629875,18.8093941 107.032946,17.6366902 107.432482,16.4677159 C107.218375,16.1396965 107.047286,15.8081436 106.918821,15.4732536 C106.790554,15.1381673 106.726321,14.7852175 106.726321,14.4146007 C106.726321,14.0437875 106.865393,13.6553072 107.143536,13.2489636 C107.421679,12.8426199 107.756982,12.4682733 108.149446,12.1261201 C108.541714,11.783967 108.948321,11.5024709 109.369268,11.2814356 C109.790018,11.0604004 110.150268,10.9498827 110.449821,10.9498827 C110.977821,10.9498827 111.373625,11.1281243 111.637625,11.4846075 C111.901625,11.8410906 112.033625,12.3186917 112.033625,12.9174107 C112.033625,13.2454301 111.98,13.5697199 111.872946,13.8904762 C111.766089,14.2114288 111.648232,14.5107883 111.519964,14.7887509 C111.3915,15.0669099 111.273839,15.3056123 111.166786,15.5052507 C111.059732,15.7048891 110.999232,15.8330738 110.984893,15.8901975 C111.498554,16.802606 112.033625,17.6082265 112.589911,18.3068628 C113.146393,19.0054991 113.656321,19.6970686 114.120089,20.3813749 C114.583661,21.0656813 114.965321,21.7927813 115.265071,22.562675 C115.564625,23.332765 115.714304,24.2381066 115.714304,25.278896 C115.714304,25.5354618 115.696625,25.7992908 115.660875,26.0701866 C115.625125,26.3410824 115.571696,26.5976482 115.500393,26.8400803 C116.014054,26.7401629 116.467018,26.5833182 116.859286,26.3695461 C117.251554,26.1557739 117.594125,25.9098084 117.886607,25.6316495 C118.178893,25.3536868 118.421482,25.0507939 118.614179,24.7227745 C118.806679,24.3949513 118.967161,24.0526018 119.095625,23.696315 C119.252571,23.2827081 119.409518,22.9833487 119.566464,22.7980402 C119.723411,22.6127318 119.901768,22.5200776 120.101536,22.5200776 C120.286964,22.5200776 120.475929,22.5805384 120.668625,22.7018526 C120.861125,22.8229705 121.032411,22.9762818 121.182089,23.1615902 C121.331964,23.3468987 121.453161,23.5394702 121.545875,23.7391087 C121.638786,23.9385508 121.685143,24.1167924 121.685143,24.2736371 C121.685143,24.4876055 121.627982,24.7441713 121.513857,25.0435308 C121.399732,25.3430866 121.246321,25.6495129 121.053821,25.9632024 C120.861125,26.2768918 120.643679,26.5797847 120.401089,26.8720774 C120.1585,27.16437 119.908839,27.4174024 119.652107,27.6313708 C118.967161,28.1872961 118.161214,28.6542969 117.233875,29.0321769 C116.306536,29.4100569 115.158018,29.6487593 113.788321,29.7486766 C113.260518,30.2048808 112.636268,30.5790311 111.915768,30.8713237 C111.195268,31.1636164 110.385786,31.3098608 109.486929,31.3098608 C109.030429,31.3098608 108.563125,31.2527372 108.085214,31.1386861 C107.607304,31.0246351 107.150607,30.8785869 106.715518,30.7003453 C106.280429,30.5221037 105.884429,30.3259987 105.527911,30.1122266 C105.171196,29.8982582 104.885786,29.6844861 104.671875,29.4705177 C104.129732,28.9573861 103.780089,28.4405248 103.623143,27.92013 C103.466196,27.3997353 103.427107,26.9327345 103.505482,26.5193239 C103.584054,26.1057171 103.737268,25.7670974 103.965714,25.5034647 C104.193964,25.2396358 104.429286,25.1077213 104.671875,25.1077213 C104.814482,25.1077213 105.039196,25.1683784 105.346018,25.2894963 C105.652643,25.4108105 106.005821,25.567459 106.405161,25.7600305 C106.804696,25.9526021 107.239786,26.1557739 107.710625,26.3695461 C108.181464,26.5833182 108.652304,26.78649 109.123143,26.9790616 C109.593982,27.1716332 110.054018,27.3282816 110.503446,27.4495958 C110.952875,27.5707137 111.363018,27.6313708 111.733875,27.6313708 C111.976464,27.346145 112.197643,26.9684613 112.397411,26.4979271 C112.596982,26.0273929 112.696964,25.514065 112.696964,24.9581397 C112.696964,24.2736371 112.60425,23.6391913 112.418821,23.054606 C112.233196,22.4700208 111.990804,21.9282292 111.691054,21.4292313 C111.3915,20.9302334 111.052661,20.4632326 110.674536,20.0284252 C110.296607,19.5936178 109.914946,19.1837407 109.52975,18.7987939 C109.187375,19.6399449 108.887625,20.4704957 108.630893,21.29025 C108.374161,22.1100042 108.103089,23.0404723 107.817679,24.0812618 Z" id="Fill-9"></path>
                <path d="M115.350911,9.49568272 C115.678946,9.52414641 116.042929,9.54554325 116.442268,9.55987325 C116.784643,9.58833694 117.198518,9.60620035 117.6835,9.6132672 C118.168679,9.62033405 118.710821,9.63113062 119.309929,9.64526431 L119.309929,2.22429002 C119.309929,1.91060054 119.284982,1.66110159 119.235089,1.47579316 C119.185196,1.29048474 119.135107,1.14424027 119.085214,1.03725606 C119.035321,0.930468156 118.985429,0.84488079 118.935536,0.780690265 C118.885446,0.71649974 118.8605,0.648775792 118.8605,0.577518421 C118.8605,0.491931055 118.903321,0.420673683 118.988964,0.363746306 C119.074607,0.306622629 119.188732,0.256762099 119.331339,0.213968416 C119.473946,0.171174732 119.627357,0.139177621 119.791375,0.117780779 C119.955589,0.0963839377 120.116071,0.0855873662 120.273018,0.0855873662 C121.000589,0.0855873662 121.57475,0.274625517 121.995696,0.652309216 C122.416643,1.03018922 122.627018,1.48286001 122.627018,2.0103216 L122.627018,9.68805799 C123.968036,9.68805799 125.384089,9.6739243 126.874982,9.64526431 C128.365875,9.61680062 129.860304,9.56694009 131.358268,9.49568272 C131.558036,9.28171431 131.718518,9.20339009 131.839911,9.26031746 C131.961107,9.31744114 132.039482,9.45288904 132.075232,9.66666115 C132.110982,9.88062957 132.114518,10.1444585 132.085839,10.4579517 C132.057357,10.7716412 132.000393,11.0747304 131.91475,11.367023 C131.829107,11.6593156 131.711446,11.912348 131.561571,12.1261201 C131.411893,12.3400885 131.244143,12.4470727 131.058714,12.4470727 C129.303821,12.4896701 127.752429,12.5147967 126.404143,12.5218635 C125.055857,12.5289304 123.796946,12.5324638 122.627018,12.5324638 L122.627018,26.4123397 C122.627018,27.1251098 122.762554,27.6384377 123.033625,27.9521271 C123.304696,28.2658166 123.668482,28.4226613 124.124982,28.4226613 C124.567339,28.4226613 124.949,28.2658166 125.269964,27.9521271 C125.590929,27.6384377 125.869071,27.246424 126.104589,26.7758897 C126.339911,26.3053555 126.532607,25.7957574 126.682286,25.2467026 C126.832161,24.6978442 126.956893,24.1809829 127.056875,23.696315 C127.142518,23.2399145 127.285125,22.9085579 127.484893,22.7018526 C127.684661,22.494951 127.8915,22.3916965 128.105411,22.3916965 C128.276696,22.3916965 128.455054,22.4450905 128.640482,22.5520747 C128.825911,22.6590589 128.993661,22.7980402 129.143339,22.9690187 C129.293214,23.1401934 129.414411,23.332765 129.507125,23.5465371 C129.599839,23.7603092 129.646196,23.9742776 129.646196,24.1880497 L129.646196,24.2950339 C129.646196,24.3378276 129.632054,24.4020181 129.603571,24.4876055 C129.417946,25.2147055 129.16475,25.9775324 128.843786,26.7758897 C128.522821,27.5742471 128.108946,28.3086103 127.602554,28.9787829 C127.096161,29.6487593 126.493321,30.2048808 125.794232,30.6467551 C125.095143,31.0888256 124.274857,31.3098608 123.333179,31.3098608 C122.748214,31.3098608 122.209607,31.2207401 121.717554,31.0424985 C121.225304,30.8642569 120.800821,30.5790311 120.444107,30.1870174 C120.087589,29.7950037 119.80925,29.2922761 119.609482,28.6792271 C119.409911,28.0661782 119.309929,27.3247482 119.309929,26.4551334 L119.309929,12.5324638 C118.824946,12.5324638 118.393393,12.5289304 118.015268,12.5218635 C117.637143,12.5147967 117.319714,12.5040001 117.062982,12.4896701 C116.763232,12.4755364 116.499429,12.4612064 116.271179,12.4470727 C115.928607,12.4470727 115.625518,12.2937614 115.361518,11.9871388 C115.097714,11.6807125 114.912286,11.3420927 114.805232,10.9712796 C114.698179,10.6006627 114.683839,10.262043 114.762411,9.95542036 C114.840786,9.64899404 115.037018,9.49568272 115.350911,9.49568272 Z" id="Fill-10"></path>
                <path d="M136.794232,31.3098608 C136.280768,31.3098608 135.756304,31.2313403 135.221429,31.0744956 C134.686357,30.9176508 134.201375,30.6467551 133.766089,30.2618082 C133.331,29.8768614 132.974286,29.3672632 132.696143,28.7328174 C132.418,28.0983716 132.278929,27.2962845 132.278929,26.3267524 C132.278929,24.915346 132.467893,23.4216895 132.846018,21.8463715 C133.223946,20.2708573 133.769821,18.5349649 134.483054,16.6386944 L131.144554,16.6386944 L130.6525,16.6386944 C130.638161,17.0664349 130.613214,17.6082265 130.577464,18.2640691 C130.541911,18.9199118 130.481214,19.6185481 130.395571,20.3599781 C130.309929,21.1014081 130.199536,21.849905 130.064,22.6054687 C129.928464,23.3612287 129.760714,24.059865 129.560946,24.7013776 C129.418339,25.1575818 129.193625,25.4214108 128.886804,25.4926682 C128.580179,25.5639255 128.276893,25.5105316 127.977339,25.33229 C127.677786,25.1540484 127.435196,24.8939492 127.249768,24.551796 C127.064339,24.2094466 127.021518,23.8531597 127.121304,23.4823466 C127.235429,23.0404723 127.335411,22.5022142 127.421054,21.8677684 C127.5065,21.2333226 127.574268,20.5631499 127.624357,19.8574468 C127.67425,19.1515473 127.713536,18.4458441 127.742018,17.740141 C127.7705,17.0344378 127.791911,16.4035254 127.80625,15.8474038 C127.264107,15.5480444 126.814679,15.1666309 126.457964,14.7031636 C126.10125,14.2398925 125.922893,13.6873044 125.922893,13.0457917 C125.922893,12.7464322 125.983589,12.472003 126.104786,12.2225041 C126.226179,11.9730051 126.386661,11.7590367 126.586429,11.5807951 C126.786196,11.4025535 127.021518,11.2671056 127.292589,11.1744514 C127.563661,11.0817972 127.841804,11.0354701 128.127214,11.0354701 C128.383946,11.0354701 128.651482,11.0711969 128.929625,11.1424543 C129.207964,11.2137117 129.471768,11.3420927 129.721429,11.5274012 C129.971089,11.7127096 130.195804,11.9551417 130.395571,12.2545012 C130.595339,12.5538607 130.759357,12.9246738 130.887821,13.366548 C131.244536,13.4093417 131.547625,13.4415351 131.797286,13.462932 C132.046946,13.4841325 132.257518,13.5019959 132.428607,13.5163259 C132.599893,13.5306559 132.7425,13.5377228 132.856625,13.5377228 L135.488964,13.5377228 C135.617232,13.5377228 135.806393,13.616047 136.056054,13.7728917 C136.305714,13.9297365 136.551839,14.1329083 136.794232,14.3824073 C137.036821,14.6319062 137.240125,14.8992686 137.404143,15.1844944 C137.568357,15.4695238 137.628857,15.7404196 137.586036,15.9971817 C137.586036,16.0827691 137.536143,16.2894744 137.436357,16.6172975 C137.336375,16.945317 137.215179,17.3587275 137.072571,17.8577254 C136.929768,18.3567233 136.772821,18.9307083 136.601732,19.5792878 C136.430446,20.2280636 136.2735,20.9088365 136.130893,21.6218028 C135.988286,22.3345729 135.866893,23.0724694 135.767107,23.8352963 C135.667321,24.5981231 135.617232,25.3430866 135.617232,26.0701866 C135.617232,26.3695461 135.652982,26.6618387 135.724286,26.9470645 C135.795589,27.232094 135.902643,27.4851263 136.04525,27.7061616 C136.188054,27.9271969 136.369946,28.101905 136.590929,28.2300898 C136.812107,28.3584708 137.072571,28.4226613 137.372125,28.4226613 C137.871446,28.4226613 138.299464,28.2658166 138.656179,27.9521271 C139.012893,27.6384377 139.312446,27.246424 139.555036,26.7758897 C139.797429,26.3053555 139.993661,25.7957574 140.143536,25.2467026 C140.293214,24.6978442 140.418143,24.1809829 140.517929,23.696315 C140.603571,23.2399145 140.746179,22.9085579 140.945946,22.7018526 C141.145714,22.494951 141.352554,22.3916965 141.566661,22.3916965 C141.73775,22.3916965 141.916107,22.4450905 142.101536,22.5520747 C142.286964,22.6590589 142.454714,22.7980402 142.604393,22.9690187 C142.754268,23.1401934 142.875464,23.332765 142.968375,23.5465371 C143.061089,23.7603092 143.107446,23.9742776 143.107446,24.1880497 C143.107446,24.2595034 143.100179,24.3164308 143.086036,24.3592245 C143.071696,24.4020181 143.064625,24.4448118 143.064625,24.4876055 C142.864857,25.2147055 142.604393,25.9775324 142.283429,26.7758897 C141.962464,27.5742471 141.552321,28.3086103 141.053,28.9787829 C140.553679,29.6487593 139.954375,30.2048808 139.255286,30.6467551 C138.556196,31.0888256 137.735911,31.3098608 136.794232,31.3098608 Z" id="Fill-11"></path>
                <path d="M153.101732,28.4226613 C153.543893,28.4226613 153.925554,28.2658166 154.246518,27.9521271 C154.567482,27.6384377 154.845821,27.246424 155.081143,26.7758897 C155.316661,26.3053555 155.509161,25.7957574 155.659036,25.2467026 C155.808714,24.6978442 155.933643,24.1809829 156.033429,23.696315 C156.133411,23.2399145 156.279554,22.9085579 156.47225,22.7018526 C156.66475,22.494951 156.875321,22.3916965 157.103571,22.3916965 C157.274661,22.3916965 157.449482,22.4450905 157.627839,22.5520747 C157.806196,22.6590589 157.970214,22.7980402 158.120089,22.9690187 C158.269768,23.1401934 158.391161,23.332765 158.483875,23.5465371 C158.576589,23.7603092 158.622946,23.9742776 158.622946,24.1880497 L158.622946,24.2950339 C158.622946,24.3378276 158.608607,24.4020181 158.580125,24.4876055 C158.394696,25.2147055 158.1415,25.9775324 157.820339,26.7758897 C157.499375,27.5742471 157.089232,28.3086103 156.589911,28.9787829 C156.090589,29.6487593 155.48775,30.2048808 154.781589,30.6467551 C154.075429,31.0888256 153.251411,31.3098608 152.309929,31.3098608 C151.539339,31.3098608 150.868929,31.145753 150.298304,30.8179298 C149.727482,30.4899103 149.278054,30.0551029 148.950018,29.5133114 C148.507661,30.0123093 147.976321,30.4365164 147.355607,30.7859327 C146.735089,31.1351527 146.011054,31.3098608 145.1835,31.3098608 C144.327464,31.3098608 143.574946,31.1386861 142.92575,30.7965329 C142.27675,30.4543798 141.730875,29.987379 141.288714,29.3957269 C140.846357,28.8040748 140.514786,28.1054384 140.293607,27.2998179 C140.072429,26.4943937 139.961839,25.6281161 139.961839,24.7013776 C139.961839,22.8763644 140.254321,21.236856 140.839286,19.7824597 C141.42425,18.3282597 142.201714,17.0913652 143.171875,16.0719725 C144.142036,15.0525799 145.251268,14.2718896 146.499571,13.730098 C147.748071,13.1883065 149.042732,12.9174107 150.38375,12.9174107 C150.983054,12.9174107 151.468036,13.0815185 151.839089,13.4093417 C152.209946,13.7373612 152.395375,14.1864986 152.395375,14.7567538 C152.395375,15.1273707 152.356286,15.3876662 152.277714,15.5372478 C152.199339,15.6870257 152.053,15.7618165 151.839089,15.7618165 C151.639321,15.7618165 151.432482,15.7476828 151.218375,15.7190228 C151.004464,15.6905591 150.783286,15.6764254 150.555036,15.6764254 C149.727482,15.6764254 148.885786,15.8582004 148.02975,16.2217504 C147.173714,16.5853004 146.399786,17.1412257 145.707768,17.8899189 C145.015946,18.6384157 144.448857,19.586551 144.0065,20.7341284 C143.564339,21.8819021 143.343161,23.2471776 143.343161,24.8297587 C143.343161,25.9845992 143.564339,26.8720774 144.0065,27.4923895 C144.448857,28.1125053 145.055232,28.4226613 145.825625,28.4226613 C146.424732,28.4226613 146.924054,28.1980927 147.323589,27.7489553 C147.723125,27.2998179 148.044089,26.7688229 148.286679,26.1557739 L148.286679,19.3975128 C148.286679,19.1837407 148.275875,19.0054991 148.254464,18.8629844 C148.233054,18.7202734 148.211643,18.5991554 148.190232,18.4994344 C148.168821,18.399517 148.151143,18.3103962 148.136804,18.232072 C148.122464,18.1535515 148.115393,18.0787607 148.115393,18.0075033 C148.115393,17.7794012 148.225982,17.5976262 148.447161,17.4621783 C148.668143,17.3267304 148.935679,17.2590065 149.249571,17.2590065 C149.977143,17.2590065 150.555036,17.4478483 150.983054,17.8257283 C151.411071,18.203412 151.624982,18.6560828 151.624982,19.1837407 L151.624982,26.4123397 C151.624982,26.6547718 151.653661,26.8934742 151.710625,27.1288395 C151.767786,27.3640084 151.853232,27.5779769 151.967357,27.7703521 C152.081482,27.9629237 152.234893,28.1195721 152.427589,28.2408863 C152.620089,28.3620042 152.844804,28.4226613 153.101732,28.4226613 Z" id="Fill-12"></path>
                <path d="M152.267304,9.49568272 C152.595536,9.52414641 152.959321,9.54554325 153.358857,9.55987325 C153.701232,9.58833694 154.114911,9.60620035 154.599893,9.6132672 C155.085071,9.62033405 155.627214,9.63113062 156.226321,9.64526431 L156.226321,2.22429002 C156.226321,1.91060054 156.201375,1.66110159 156.151482,1.47579316 C156.101589,1.29048474 156.051696,1.14424027 156.001804,1.03725606 C155.951714,0.930468156 155.901821,0.84488079 155.851929,0.780690265 C155.802036,0.71649974 155.777089,0.648775792 155.777089,0.577518421 C155.777089,0.491931055 155.819714,0.420673683 155.905357,0.363746306 C155.991,0.306622629 156.105125,0.256762099 156.247732,0.213968416 C156.390536,0.171174732 156.543946,0.139177621 156.707964,0.117780779 C156.871982,0.0963839377 157.032464,0.0855873662 157.189411,0.0855873662 C157.916982,0.0855873662 158.491339,0.274625517 158.912089,0.652309216 C159.333036,1.03018922 159.543411,1.48286001 159.543411,2.0103216 L159.543411,9.68805799 C160.884625,9.68805799 162.300482,9.6739243 163.791375,9.64526431 C165.282268,9.61680062 166.776696,9.56694009 168.274857,9.49568272 C168.474429,9.28171431 168.635107,9.20339009 168.756304,9.26031746 C168.8775,9.31744114 168.956071,9.45288904 168.991625,9.66666115 C169.027375,9.88062957 169.030911,10.1444585 169.002429,10.4579517 C168.973946,10.7716412 168.916786,11.0747304 168.831143,11.367023 C168.7455,11.6593156 168.627839,11.912348 168.478161,12.1261201 C168.328286,12.3400885 168.160732,12.4470727 167.975107,12.4470727 C166.220411,12.4896701 164.668821,12.5147967 163.320536,12.5218635 C161.972446,12.5289304 160.713339,12.5324638 159.543411,12.5324638 L159.543411,26.4123397 C159.543411,27.1251098 159.678946,27.6384377 159.950018,27.9521271 C160.221089,28.2658166 160.584875,28.4226613 161.041571,28.4226613 C161.483732,28.4226613 161.865393,28.2658166 162.186357,27.9521271 C162.507321,27.6384377 162.785661,27.246424 163.020982,26.7758897 C163.2565,26.3053555 163.449,25.7957574 163.598875,25.2467026 C163.748554,24.6978442 163.873482,24.1809829 163.973268,23.696315 C164.058911,23.2399145 164.201518,22.9085579 164.401286,22.7018526 C164.601054,22.494951 164.807893,22.3916965 165.022,22.3916965 C165.193089,22.3916965 165.371446,22.4450905 165.556875,22.5520747 C165.7425,22.6590589 165.910054,22.7980402 166.059929,22.9690187 C166.209607,23.1401934 166.331,23.332765 166.423714,23.5465371 C166.516429,23.7603092 166.562786,23.9742776 166.562786,24.1880497 L166.562786,24.2950339 C166.562786,24.3378276 166.548446,24.4020181 166.519964,24.4876055 C166.334536,25.2147055 166.081339,25.9775324 165.760179,26.7758897 C165.439214,27.5742471 165.025536,28.3086103 164.518946,28.9787829 C164.012554,29.6487593 163.409714,30.2048808 162.710625,30.6467551 C162.011536,31.0888256 161.19125,31.3098608 160.249571,31.3098608 C159.664804,31.3098608 159.126196,31.2207401 158.633946,31.0424985 C158.141696,30.8642569 157.717214,30.5790311 157.360696,30.1870174 C157.003982,29.7950037 156.725839,29.2922761 156.526071,28.6792271 C156.326304,28.0661782 156.226321,27.3247482 156.226321,26.4551334 L156.226321,12.5324638 C155.741339,12.5324638 155.309786,12.5289304 154.931661,12.5218635 C154.553536,12.5147967 154.236107,12.5040001 153.979375,12.4896701 C153.679821,12.4755364 153.415821,12.4612064 153.187571,12.4470727 C152.845196,12.4470727 152.541911,12.2937614 152.278107,11.9871388 C152.014107,11.6807125 151.828679,11.3420927 151.721625,10.9712796 C151.614571,10.6006627 151.600429,10.262043 151.678804,9.95542036 C151.757375,9.64899404 151.953411,9.49568272 152.267304,9.49568272 Z" id="Fill-13"></path>
                <path d="M166.477536,9.02514851 C166.120821,9.02514851 165.781982,8.95389114 165.461018,8.81137639 C165.139857,8.66866535 164.861714,8.47629008 164.626393,8.23385797 C164.390875,7.99142587 164.201911,7.70992981 164.059304,7.38917349 C163.9165,7.06822086 163.845196,6.72253428 163.845196,6.35191742 C163.845196,5.96697058 163.9165,5.61048742 164.059304,5.28246795 C164.201911,4.95464478 164.390875,4.67295242 164.626393,4.43778346 C164.861714,4.2024182 165.139857,4.01710978 165.461018,3.88166188 C165.781982,3.74621398 166.120821,3.67849004 166.477536,3.67849004 C166.862732,3.67849004 167.21925,3.74621398 167.547482,3.88166188 C167.875714,4.01710978 168.157393,4.2024182 168.392714,4.43778346 C168.628232,4.67295242 168.813661,4.95464478 168.949196,5.28246795 C169.084732,5.61048742 169.1525,5.96697058 169.1525,6.35191742 C169.1525,6.72253428 169.084732,7.06822086 168.949196,7.38917349 C168.813661,7.70992981 168.628232,7.99142587 168.392714,8.23385797 C168.157393,8.47629008 167.875714,8.66866535 167.547482,8.81137639 C167.21925,8.95389114 166.862732,9.02514851 166.477536,9.02514851 Z M167.48325,26.4123397 C167.48325,26.5120608 167.490321,26.672439 167.504661,26.8934742 C167.519,27.1145095 167.561821,27.3390782 167.633125,27.5671803 C167.704429,27.7952824 167.818554,27.9949208 167.9755,28.1660955 C168.132446,28.337074 168.353625,28.4226613 168.638839,28.4226613 C169.066857,28.4226613 169.441446,28.2658166 169.762411,27.9521271 C170.083375,27.6384377 170.361714,27.246424 170.597036,26.7758897 C170.832357,26.3053555 171.028589,25.7957574 171.185536,25.2467026 C171.342482,24.6978442 171.470946,24.1809829 171.570732,23.696315 C171.656375,23.2542444 171.788375,22.9334881 171.966732,22.7338497 C172.144893,22.5342113 172.337589,22.4236937 172.544429,22.4022968 C172.751268,22.3809 172.958107,22.4344902 173.165143,22.562675 C173.371982,22.691056 173.557411,22.8586973 173.721429,23.0654026 C173.885446,23.2721079 174.006839,23.5037434 174.085214,23.7603092 C174.163786,24.0170713 174.174393,24.2595034 174.117429,24.4876055 C173.917661,25.2147055 173.657196,25.9775324 173.336232,26.7758897 C173.015268,27.5742471 172.605125,28.3086103 172.105804,28.9787829 C171.606482,29.6487593 171.007179,30.2048808 170.308089,30.6467551 C169.609,31.0888256 168.788714,31.3098608 167.847036,31.3098608 C167.262071,31.3098608 166.741339,31.1993432 166.284839,30.9783079 C165.828339,30.7572727 165.443143,30.4614466 165.12925,30.0908298 C164.815357,29.7200166 164.5765,29.2852092 164.412286,28.7862113 C164.248268,28.2872134 164.166161,27.7597519 164.166161,27.2036303 L164.166161,15.5052507 C164.166161,15.0918401 164.134143,14.7922844 164.069911,14.6069759 C164.005679,14.4216675 163.973661,14.2504928 163.973661,14.093648 C163.973661,13.8798759 164.087786,13.7051678 164.316036,13.5697199 C164.544286,13.434272 164.815357,13.366548 165.12925,13.366548 C165.856821,13.366548 166.431179,13.5555862 166.851929,13.9332699 C167.272875,14.3111499 167.48325,14.7638207 167.48325,15.2912823 L167.48325,26.4123397 Z" id="Fill-14"></path>
                <path d="M187.771179,22.8622308 C187.799661,22.691056 187.895911,22.5485413 188.059929,22.4344902 C188.224143,22.3204392 188.413107,22.2419186 188.627018,22.199125 C188.841125,22.1563313 189.065839,22.1563313 189.301161,22.199125 C189.536679,22.2419186 189.743518,22.3383026 189.921875,22.4878842 C190.100232,22.6376621 190.2285,22.8443673 190.307071,23.1081963 C190.385446,23.3718289 190.374839,23.7104487 190.274857,24.1240555 C190.146589,24.7227745 189.936018,25.2824295 189.643536,25.8028242 C189.351054,26.323219 188.983732,26.7829566 188.541571,27.1822334 C188.099214,27.5815103 187.578482,27.8951998 186.979179,28.1233019 C186.380071,28.351404 185.709464,28.465455 184.967554,28.465455 C184.568214,28.465455 184.193625,28.4440582 183.844179,28.4012645 C183.494536,28.3584708 183.155696,28.2801466 182.827661,28.1660955 C182.285518,29.1069677 181.586429,29.8662611 180.730393,30.4435832 C179.874357,31.0211016 178.818554,31.3098608 177.563179,31.3098608 C176.450411,31.3098608 175.494393,31.092359 174.695518,30.6575516 C173.896643,30.2227442 173.233107,29.6308958 172.705304,28.882399 C172.177304,28.1339021 171.788571,27.2678208 171.538911,26.2839587 C171.28925,25.3002929 171.164518,24.2595034 171.164518,23.1615902 C171.164518,21.5505455 171.353482,20.1069457 171.731607,18.830791 C172.109536,17.5548325 172.548357,16.4712494 173.047679,15.5800415 C173.547,14.6890299 174.042786,14.008257 174.535036,13.5377228 C175.027286,13.0671886 175.394607,12.8320196 175.637196,12.8320196 C175.922411,12.8320196 176.182875,12.9566709 176.418196,13.2061699 C176.653714,13.4556688 176.824804,13.7479615 176.931857,14.0830478 C177.038911,14.4181341 177.067393,14.7567538 177.0175,15.098907 C176.967411,15.4410602 176.799857,15.7048891 176.514446,15.8901975 C176.343357,16.1610933 176.140054,16.4747828 175.904536,16.831266 C175.669214,17.1875528 175.448036,17.6331568 175.241196,18.1678815 C175.034357,18.7026062 174.859536,19.3547191 174.716929,20.1246128 C174.574321,20.8947028 174.502821,21.8214413 174.502821,22.9050244 C174.502821,23.8317629 174.584929,24.6371871 174.748946,25.3216897 C174.913161,26.0059961 175.141411,26.5797847 175.433893,27.0432521 C175.726375,27.5065232 176.061482,27.8524061 176.439607,28.0805082 C176.817732,28.3086103 177.220804,28.4226613 177.648821,28.4226613 C178.276411,28.4226613 178.793607,28.26935 179.200214,27.9629237 C179.606821,27.6563011 179.952929,27.2534908 180.238143,26.7544929 C179.211018,25.8705482 178.429821,24.7477047 177.89475,23.3861589 C177.359875,22.0246131 177.092339,20.5523534 177.092339,18.9697723 C177.092339,18.285466 177.167179,17.6331568 177.317054,17.013041 C177.466929,16.3927289 177.687911,15.8474038 177.980393,15.3768696 C178.272875,14.9063354 178.640196,14.5321851 179.082554,14.2542225 C179.524911,13.9760636 180.038375,13.8370822 180.623339,13.8370822 C181.137,13.8370822 181.621982,14.0223907 182.078679,14.3932038 C182.535179,14.7638207 182.934518,15.2771486 183.277089,15.9329912 C183.619464,16.5888338 183.887,17.3657944 184.0795,18.2640691 C184.272196,19.1623439 184.368446,20.1389428 184.368446,21.1940623 C184.368446,22.0067497 184.318554,22.8121739 184.218571,23.6107276 C184.118786,24.409085 183.961839,25.1789787 183.747732,25.9204087 C183.904679,25.9775324 184.051018,26.0095295 184.186554,26.0165963 C184.322089,26.0238595 184.468232,26.0273929 184.625179,26.0273929 C185.096018,26.0273929 185.513429,25.9418055 185.877214,25.7706308 C186.241,25.5996524 186.551357,25.3715503 186.808089,25.0863245 C187.064821,24.801295 187.271661,24.4662087 187.428607,24.0812618 C187.585554,23.696315 187.699679,23.2899713 187.771179,22.8622308 Z M179.403518,18.7987939 C179.403518,19.7824597 179.556929,20.7164613 179.86375,21.600406 C180.170375,22.4843508 180.573446,23.2542444 181.072768,23.9100871 C181.158411,23.2114508 181.201232,22.5414744 181.201232,21.8997655 C181.201232,21.1583355 181.190429,20.4704957 181.169018,19.8360499 C181.147607,19.2016041 181.097714,18.6560828 181.019339,18.1998786 C180.940768,17.7436744 180.833911,17.3836578 180.698375,17.1198289 C180.562839,16.8561962 180.38075,16.7242817 180.1525,16.7242817 C179.653179,16.7242817 179.403518,17.4158512 179.403518,18.7987939 Z" id="Fill-15"></path>
                <path d="M187.792786,15.5052507 C187.792786,15.0918401 187.760768,14.7922844 187.696536,14.6069759 C187.632304,14.4216675 187.600286,14.2504928 187.600286,14.093648 C187.600286,13.8798759 187.714411,13.7051678 187.942661,13.5697199 C188.170911,13.434272 188.441982,13.366548 188.755875,13.366548 C189.483446,13.366548 190.057607,13.5555862 190.478554,13.9332699 C190.8995,14.3111499 191.109875,14.7638207 191.109875,15.2912823 L191.109875,17.2590065 C191.409429,16.6457612 191.733929,16.075506 192.083571,15.5480444 C192.433018,15.0203865 192.811143,14.5606488 193.21775,14.1686351 C193.624357,13.7764251 194.059446,13.4699988 194.523214,13.2489636 C194.986786,13.0279283 195.489839,12.9174107 196.031982,12.9174107 C196.758571,12.9174107 197.359643,13.0528586 197.829107,13.3237543 C198.300536,13.5946501 198.671786,13.9440665 198.942857,14.371807 C199.213929,14.7995475 199.4025,15.2771486 199.508571,15.8046102 C199.616607,16.3322681 199.669643,16.8453996 199.669643,17.3443975 L199.669643,26.4123397 C199.669643,26.5120608 199.6775,26.672439 199.69125,26.8934742 C199.705,27.1145095 199.748214,27.3390782 199.818929,27.5671803 C199.891607,27.7952824 200.001607,27.9949208 200.150893,28.1660955 C200.302143,28.337074 200.518214,28.4226613 200.805,28.4226613 C201.246964,28.4226613 201.628036,28.2658166 201.948214,27.9521271 C202.270357,27.6384377 202.547321,27.246424 202.783036,26.7758897 C203.01875,26.3053555 203.21125,25.7957574 203.360536,25.2467026 C203.511786,24.6978442 203.635536,24.1809829 203.735714,23.696315 C203.822143,23.2399145 203.963571,22.9085579 204.163929,22.7018526 C204.364286,22.494951 204.570536,22.3916965 204.784643,22.3916965 C204.955536,22.3916965 205.134286,22.4450905 205.318929,22.5520747 C205.505536,22.6590589 205.6725,22.7980402 205.821786,22.9690187 C205.973036,23.1401934 206.092857,23.332765 206.187143,23.5465371 C206.279464,23.7603092 206.324643,23.9742776 206.324643,24.1880497 L206.324643,24.2950339 C206.324643,24.3378276 206.310893,24.4020181 206.283393,24.4876055 C206.096786,25.2147055 205.843393,25.9775324 205.523214,26.7758897 C205.201071,27.5742471 204.788571,28.3086103 204.281786,28.9787829 C203.775,29.6487593 203.171964,30.2048808 202.472679,30.6467551 C201.773393,31.0888256 200.954286,31.3098608 200.011429,31.3098608 C199.428036,31.3098608 198.909464,31.1993432 198.461607,30.9783079 C198.011786,30.7572727 197.626786,30.4614466 197.304643,30.0908298 C196.984464,29.7200166 196.740893,29.2852092 196.577857,28.7862113 C196.413643,28.2872134 196.331536,27.7597519 196.331536,27.2036303 L196.331536,18.3068628 C196.331536,17.9647097 196.324464,17.6439533 196.310125,17.3443975 C196.295786,17.0450381 196.256696,16.7812091 196.192464,16.553107 C196.128232,16.3250049 196.035518,16.1432299 195.914125,16.007782 C195.792929,15.8723341 195.625375,15.8046102 195.411268,15.8046102 C195.097375,15.8046102 194.712179,16.0185786 194.255679,16.4463191 C193.799179,16.8740596 193.34975,17.4299849 192.907393,18.1142912 C192.465232,18.7987939 192.0765,19.572221 191.741196,20.4347689 C191.405893,21.2973168 191.195518,22.1635944 191.109875,23.0332092 L191.109875,29.427724 C191.109875,29.6416924 191.106339,29.8591942 191.099071,30.0800332 C191.092,30.3010685 191.049179,30.5007069 190.970804,30.6789485 C190.892232,30.85719 190.771036,31.0067716 190.607018,31.1280858 C190.442804,31.2492037 190.203946,31.3098608 189.890054,31.3098608 C189.675946,31.3098608 189.444161,31.2849306 189.1945,31.2348737 C188.944839,31.1850132 188.716589,31.092359 188.50975,30.9569111 C188.302911,30.8214632 188.131625,30.6290879 187.996089,30.379589 C187.860554,30.13009 187.792786,29.7985371 187.792786,29.3851266 L187.792786,15.5052507 Z" id="Fill-16"></path>
                <path d="M206.090893,24.0812618 C205.976964,24.537466 205.762857,24.8189621 205.448571,24.9259463 C205.134286,25.0329305 204.823929,25.0221339 204.5175,24.8939492 C204.211071,24.7655681 203.95375,24.5445329 203.7475,24.2308434 C203.539286,23.9171539 203.480357,23.5750008 203.564821,23.2043839 C203.778929,22.2348518 204.089286,21.1618689 204.495893,19.9856315 C204.9025,18.8093941 205.305179,17.6366902 205.705893,16.4677159 C205.491786,16.1396965 205.320893,15.8081436 205.19125,15.4732536 C205.063571,15.1381673 204.99875,14.7852175 204.99875,14.4146007 C204.99875,14.0437875 205.138214,13.6553072 205.417143,13.2489636 C205.694107,12.8426199 206.03,12.4682733 206.422857,12.1261201 C206.81375,11.783967 207.220357,11.5024709 207.642679,11.2814356 C208.063036,11.0604004 208.4225,10.9498827 208.723036,10.9498827 C209.251429,10.9498827 209.64625,11.1281243 209.909464,11.4846075 C210.174643,11.8410906 210.30625,12.3186917 210.30625,12.9174107 C210.30625,13.2454301 210.253214,13.5697199 210.145179,13.8904762 C210.039107,14.2114288 209.92125,14.5107883 209.793571,14.7887509 C209.663929,15.0669099 209.546071,15.3056123 209.44,15.5052507 C209.331964,15.7048891 209.271071,15.8330738 209.257321,15.8901975 C209.771964,16.802606 210.30625,17.6082265 210.862143,18.3068628 C211.42,19.0054991 211.92875,19.6970686 212.392321,20.3813749 C212.855893,21.0656813 213.238929,21.7927813 213.5375,22.562675 C213.838036,23.332765 213.987321,24.2381066 213.987321,25.278896 C213.987321,25.5354618 213.969643,25.7992908 213.934286,26.0701866 C213.896964,26.3410824 213.843929,26.5976482 213.773214,26.8400803 C214.285893,26.7401629 214.739643,26.5833182 215.1325,26.3695461 C215.523393,26.1557739 215.867143,25.9098084 216.159821,25.6316495 C216.4525,25.3536868 216.694107,25.0507939 216.886607,24.7227745 C217.079107,24.3949513 217.240179,24.0526018 217.367857,23.696315 C217.525,23.2827081 217.682143,22.9833487 217.839286,22.7980402 C217.996429,22.6127318 218.175179,22.5200776 218.373571,22.5200776 C218.560179,22.5200776 218.74875,22.5805384 218.94125,22.7018526 C219.13375,22.8229705 219.304643,22.9762818 219.453929,23.1615902 C219.605179,23.3468987 219.725,23.5394702 219.819286,23.7391087 C219.911607,23.9385508 219.956786,24.1167924 219.956786,24.2736371 C219.956786,24.4876055 219.899821,24.7441713 219.785893,25.0435308 C219.671964,25.3430866 219.51875,25.6495129 219.32625,25.9632024 C219.13375,26.2768918 218.915714,26.5797847 218.674107,26.8720774 C218.430536,27.16437 218.181071,27.4174024 217.92375,27.6313708 C217.240179,28.1872961 216.434821,28.6542969 215.505714,29.0321769 C214.578571,29.4100569 213.431429,29.6487593 212.060357,29.7486766 C211.533929,30.2048808 210.909286,30.5790311 210.188393,30.8713237 C209.4675,31.1636164 208.658214,31.3098608 207.760536,31.3098608 C207.302857,31.3098608 206.835357,31.2527372 206.358036,31.1386861 C205.880714,31.0246351 205.423036,30.8785869 204.988929,30.7003453 C204.552857,30.5221037 204.158036,30.3259987 203.800536,30.1122266 C203.443036,29.8982582 203.158214,29.6844861 202.944107,29.4705177 C202.401964,28.9573861 202.052321,28.4405248 201.895179,27.92013 C201.738036,27.3997353 201.700714,26.9327345 201.777321,26.5193239 C201.855893,26.1057171 202.009107,25.7670974 202.238929,25.5034647 C202.466786,25.2396358 202.7025,25.1077213 202.944107,25.1077213 C203.0875,25.1077213 203.311429,25.1683784 203.617857,25.2894963 C203.92625,25.4108105 204.277857,25.567459 204.678571,25.7600305 C205.077321,25.9526021 205.513393,26.1557739 205.982857,26.3695461 C206.454286,26.5833182 206.925714,26.78649 207.395179,26.9790616 C207.866607,27.1716332 208.32625,27.3282816 208.776071,27.4495958 C209.225893,27.5707137 209.636429,27.6313708 210.005714,27.6313708 C210.249286,27.346145 210.47125,26.9684613 210.669643,26.4979271 C210.87,26.0273929 210.970179,25.514065 210.970179,24.9581397 C210.970179,24.2736371 210.877857,23.6391913 210.69125,23.054606 C210.506607,22.4700208 210.263036,21.9282292 209.964464,21.4292313 C209.663929,20.9302334 209.326071,20.4632326 208.946964,20.0284252 C208.569821,19.5936178 208.186786,19.1837407 207.801786,18.7987939 C207.46,19.6399449 207.159464,20.4704957 206.904107,21.29025 C206.646786,22.1100042 206.375714,23.0404723 206.090893,24.0812618 Z" id="Fill-17"></path>
            </g>
        </g>
    </g>
</svg>