<?xml version="1.0" encoding="utf-8"?>
<!-- Generator: Adobe Illustrator 19.2.1, SVG Export Plug-In . SVG Version: 6.00 Build 0)  -->
<svg version="1.1" id="Layer_2" xmlns="http://www.w3.org/2000/svg" xmlns:xlink="http://www.w3.org/1999/xlink" x="0px" y="0px"
	 viewBox="0 0 223.4 54.7" style="enable-background:new 0 0 223.4 54.7;" xml:space="preserve">
<style type="text/css">
	.st0{fill:#FF2C6D;}
	.st1{fill:#1C2724;}
</style>
<title>logo</title>
<path class="st0" d="M92.2,50c0.3-0.6,0.5-1.2,0.6-1.9l-1.3-0.8v-0.9l1.3-0.6c-0.1-0.6-0.3-1.4-0.4-2H91L90.6,43l0.8-1.3
	c-0.4-0.5-0.9-1-1.4-1.5L88.7,41c-0.3-0.1-0.5-0.4-0.8-0.5L88,39c-0.6-0.3-1.2-0.5-1.9-0.6l-0.8,1.3h-0.9l-0.6-1.4
	c-0.6,0.1-1.3,0.3-1.9,0.5v1.5l-0.8,0.4L80,39.8c-0.5,0.4-1,0.9-1.4,1.4l0.8,1.4c-0.1,0.3-0.4,0.5-0.5,0.8L77.4,43
	c-0.3,0.6-0.5,1.2-0.6,1.9l1.3,0.8v0.9l-1.3,0.6c0.1,0.6,0.3,1.4,0.4,2h1.5l0.4,0.8l-0.8,1.3c0.4,0.5,0.9,1,1.4,1.5L81,52
	c0.3,0.1,0.5,0.4,0.8,0.5L81.5,54c0.6,0.3,1.2,0.5,1.9,0.6l0.8-1.3H85l0.6,1.4c0.6-0.1,1.3-0.3,1.9-0.5v-1.5l0.8-0.4l1.3,0.9
	c0.5-0.4,1-0.9,1.5-1.4l-0.8-1.4c0.1-0.3,0.4-0.5,0.5-0.8L92.2,50z M81.2,46.5c0-2.1,1.7-3.8,3.8-3.7c2.1,0,3.8,1.7,3.7,3.8
	c0,2.1-1.7,3.7-3.8,3.7C82.9,50.3,81.2,48.6,81.2,46.5L81.2,46.5L81.2,46.5z"/>
<path class="st0" d="M82.4,27.2v-0.5l2.9-1.7c-0.1-1.5-0.5-3-1-4.4H81c-0.3-0.6-0.6-1.3-0.9-1.8l1.8-2.9c-0.9-1.2-1.9-2.3-3-3.3
	l-3,1.8c-0.5-0.4-1.1-0.7-1.6-1l0.1-3.4c-1.3-0.6-2.7-1-4.1-1.3l-1.6,2.9h-1.9l-1.5-3c-1.5,0.1-2.9,0.5-4.3,1.1v3.4
	c-0.6,0.3-1.2,0.6-1.8,1l-2.8-1.8c-1.2,0.9-2.2,2-3.1,3.2l1.6,2.9c-0.4,0.5-0.7,1.1-1,1.8l-3.3-0.1c-0.6,1.4-1,2.8-1.3,4.3l2.9,1.8
	v2l-2.9,1.7c0.1,1.5,0.5,3,1,4.4h3.3c0.3,0.6,0.6,1.1,0.9,1.8L52.7,39c0.9,1.2,1.9,2.3,3,3.3l2.9-1.7c0.5,0.4,1.1,0.7,1.6,1L60,44.8
	c1.3,0.6,2.7,1,4.1,1.3l1.6-2.9h1.9l1.5,3c1.5-0.1,2.9-0.5,4.3-1v-3.4c0.6-0.3,1.2-0.6,1.8-1l2.8,1.8c1.2-0.9,2.2-2,3.1-3.2
	l-1.6-2.9c0.4-0.5,0.7-1.1,1-1.8l3.3,0.1c0.6-1.4,1-2.8,1.3-4.3l-2.8-1.8C82.4,28.2,82.4,27.7,82.4,27.2z M67.2,36.3
	c-4.9,0.2-9.1-3.7-9.2-8.7c-0.2-4.9,3.7-9.1,8.7-9.2c4.9-0.2,9.1,3.7,9.2,8.7v0.1l0,0v0.1c0.2,4.8-3.6,8.8-8.4,9H67.2L67.2,36.3
	L67.2,36.3z"/>
<path class="st1" d="M0,43.2V2.6h6.6v40.6C6.6,43.2,0,43.2,0,43.2z"/>
<path class="st1" d="M42.7,43.2h-6.6V24.3c0.1-1.9-0.4-3.7-1.4-5.3c-1.2-1.3-2.8-1.9-4.5-1.7c-2.8,0-4.8,0.8-6,2.4
	c-1.3,1.6-1.9,4.4-1.9,8.2v15.3h-6.5V12.5h5.1l0.9,4H22c1-1.5,2.3-2.7,3.9-3.4c1.8-0.8,3.7-1.2,5.7-1.2c7.4,0,11,3.7,11,11.2
	L42.7,43.2L42.7,43.2z"/>
<path class="st1" d="M101.3,43.2L89.6,12.5h6.9l6.2,17.8c0.9,2.3,1.6,4.8,1.9,7.3h0.2c0.5-2.5,1.1-4.9,1.9-7.3l6.2-17.8h6.9
	l-11.7,30.7C108.3,43.2,101.3,43.2,101.3,43.2z"/>
<path class="st1" d="M143.9,43.2l-1.3-4.3h-0.2c-1.2,1.6-2.7,2.9-4.5,3.8c-1.8,0.7-3.8,1.1-5.8,1c-2.6,0.2-5.1-0.7-7.1-2.4
	c-1.8-1.8-2.7-4.4-2.5-6.9c-0.2-2.8,1.2-5.6,3.5-7.2c2.3-1.6,5.9-2.5,10.7-2.6l5.3-0.2v-1.6c0.1-1.6-0.4-3.2-1.4-4.4
	c-1.2-1.1-2.7-1.6-4.3-1.5c-1.5,0-3.1,0.2-4.5,0.7s-2.8,1-4.2,1.6l-2.1-4.7c1.7-0.9,3.6-1.6,5.5-2c1.8-0.4,3.7-0.7,5.6-0.7
	c3.9,0,6.8,0.9,8.8,2.6s3,4.4,3,8v20.7h-4.5V43.2z M134.2,38.7c2.1,0.1,4.1-0.6,5.7-2c1.5-1.5,2.3-3.5,2.1-5.6v-2.7l-3.9,0.2
	c-3.1,0.1-5.3,0.6-6.7,1.5s-2.2,2.5-2.1,4.2c-0.1,1.2,0.4,2.3,1.2,3.2C131.6,38.4,132.9,38.8,134.2,38.7L134.2,38.7z"/>
<path class="st1" d="M169.1,38.5c1.6,0,3.2-0.3,4.8-0.7v4.9c-0.9,0.4-1.8,0.6-2.8,0.8c-1.2,0.2-2.4,0.3-3.5,0.3
	c-6.2,0-9.3-3.3-9.3-9.8V17.4h-4.2v-2.9l4.5-2.4l2.2-6.5h4v6.8h8.7v4.9h-8.7v16.4c-0.1,1.3,0.3,2.5,1.2,3.5
	C166.8,38.1,168,38.5,169.1,38.5z"/>
<path class="st1" d="M179.6,4.4c-0.1-1,0.3-2,1-2.7s1.7-1,2.7-0.9c1-0.1,1.9,0.3,2.7,0.9c0.7,0.7,1,1.7,1,2.7c0.1,1-0.3,1.9-1,2.6
	s-1.7,1-2.7,1c-1,0.1-2-0.3-2.7-1C179.9,6.3,179.6,5.3,179.6,4.4z M186.5,43.2H180V12.5h6.5V43.2L186.5,43.2z"/>
<path class="st1" d="M202.1,27l3.7-4.6l9.3-9.9h7.5l-12.3,13.2l13.1,17.5h-7.7l-9.9-13.5l-3.6,2.9v10.5h-6.5V0h6.5v21.1L202,27
	H202.1z"/>
</svg>
