<?xml version="1.0" encoding="utf-8"?>
<!-- Generator: Adobe Illustrator 24.0.2, SVG Export Plug-In . SVG Version: 6.00 Build 0)  -->
<svg version="1.1" id="Livello_1" xmlns="http://www.w3.org/2000/svg" xmlns:xlink="http://www.w3.org/1999/xlink" x="0px" y="0px"
	 viewBox="0 0 128 128" style="enable-background:new 0 0 128 128;" xml:space="preserve">
<style type="text/css">
	.st0{fill-rule:evenodd;clip-rule:evenodd;fill:url(#SVGID_1_);}
</style>
<g>
	
		<linearGradient id="SVGID_1_" gradientUnits="userSpaceOnUse" x1="2.0717" y1="38.7477" x2="127.0973" y2="38.7477" gradientTransform="matrix(1 0 0 1 -0.5845 25.2523)">
		<stop  offset="0" style="stop-color:#05A2D4"/>
		<stop  offset="1" style="stop-color:#3469B2"/>
	</linearGradient>
	<path class="st0" d="M126.51,63.88c0.07,34.5-27.9,62.57-62.4,62.63c-34.5,0.07-62.57-27.9-62.63-62.4
		c-0.07-34.5,27.9-62.57,62.4-62.63C98.39,1.42,126.45,29.38,126.51,63.88L126.51,63.88z M120.26,63.9
		c0.05,31.05-25.11,56.31-56.16,56.37c-31.05,0.05-9.45-18.48-19.72-56.72C36.34,33.55,32.85,7.8,63.9,7.74
		C94.95,7.68,120.2,32.85,120.26,63.9L120.26,63.9z"/>
</g>
</svg>
