<svg xmlns="http://www.w3.org/2000/svg" xmlns:xlink="http://www.w3.org/1999/xlink" width="300" height="100" viewBox="0 0 300 100">
  <defs>
    <clipPath id="clip-custom_1">
      <rect width="300" height="100"/>
    </clipPath>
  </defs>
  <g id="custom_1" data-name="custom – 1" clip-path="url(#clip-custom_1)">
    <g id="woocommerce_logo" transform="translate(-123.999 -308.2)">
      <path id="Tracciato_1" data-name="Tracciato 1" d="M146.553,331.2h75.023a8.587,8.587,0,0,1,8.591,8.591v28.638a8.587,8.587,0,0,1-8.591,8.591h-26.9l3.693,9.043-16.241-9.043H146.591A8.587,8.587,0,0,1,138,368.429V339.791A8.555,8.555,0,0,1,146.553,331.2Z" transform="translate(0)" fill="#434343" fill-rule="evenodd"/>
      <path id="Tracciato_2" data-name="Tracciato 2" d="M149.151,347.33a3.033,3.033,0,0,1,2.374-1.168q2.883-.226,3.278,2.713,1.752,11.813,3.806,20.009l8.252-15.713a3.577,3.577,0,0,1,2.826-2.261c1.658-.113,2.675.942,3.09,3.165a70.389,70.389,0,0,0,3.58,12.887q1.47-14.356,4.974-20.725a2.894,2.894,0,0,1,2.487-1.658,3.274,3.274,0,0,1,2.374.754,2.951,2.951,0,0,1,1.168,2.148,3.27,3.27,0,0,1-.377,1.809c-1.47,2.713-2.675,7.272-3.655,13.6a70.173,70.173,0,0,0-1.055,14.356,4.472,4.472,0,0,1-.452,2.487,2.428,2.428,0,0,1-2,1.357,3.788,3.788,0,0,1-2.977-1.394q-5.257-5.37-8.327-16.052-3.674,7.235-5.426,10.852c-2.223,4.258-4.107,6.443-5.69,6.556-1.017.075-1.884-.791-2.638-2.6q-2.883-7.4-6.217-28.6A3.365,3.365,0,0,1,149.151,347.33Z" transform="translate(-6.554 -8.33)" fill="#fff"/>
      <path id="Tracciato_3" data-name="Tracciato 3" d="M332.358,360a8.677,8.677,0,0,0-6.029-4.371,9.893,9.893,0,0,0-2.035-.226c-3.617,0-6.556,1.884-8.855,5.652a19.966,19.966,0,0,0-2.939,10.626,14.589,14.589,0,0,0,1.809,7.461,8.678,8.678,0,0,0,6.029,4.371,9.891,9.891,0,0,0,2.035.226c3.655,0,6.594-1.884,8.855-5.652a20.191,20.191,0,0,0,2.939-10.664A14.257,14.257,0,0,0,332.358,360Zm-4.748,10.438a9.968,9.968,0,0,1-2.864,5.577,3.623,3.623,0,0,1-3.052,1.206c-.9-.188-1.658-.98-2.223-2.449a9.563,9.563,0,0,1-.678-3.429,13.1,13.1,0,0,1,.264-2.751,12.184,12.184,0,0,1,2-4.484c1.243-1.846,2.562-2.6,3.919-2.336.9.188,1.658.98,2.223,2.449a9.563,9.563,0,0,1,.678,3.429,16.287,16.287,0,0,1-.264,2.788Z" transform="translate(-108.747 -15.081)" fill="#fff"/>
      <path id="Tracciato_4" data-name="Tracciato 4" d="M269.658,360a8.756,8.756,0,0,0-6.029-4.371,9.893,9.893,0,0,0-2.035-.226c-3.617,0-6.557,1.884-8.855,5.652a19.966,19.966,0,0,0-2.939,10.626,14.59,14.59,0,0,0,1.809,7.461,8.678,8.678,0,0,0,6.029,4.371,9.891,9.891,0,0,0,2.035.226c3.655,0,6.594-1.884,8.855-5.652a20.191,20.191,0,0,0,2.939-10.664A14.257,14.257,0,0,0,269.658,360Zm-4.748,10.438a9.968,9.968,0,0,1-2.864,5.577,3.623,3.623,0,0,1-3.052,1.206c-.9-.188-1.658-.98-2.223-2.449a9.563,9.563,0,0,1-.678-3.429,13.1,13.1,0,0,1,.264-2.751,12.184,12.184,0,0,1,2-4.484c1.243-1.846,2.562-2.6,3.919-2.336.9.188,1.658.98,2.223,2.449a9.563,9.563,0,0,1,.678,3.429,13.222,13.222,0,0,1-.264,2.788Z" transform="translate(-69.673 -15.081)" fill="#fff"/>
      <g id="Raggruppa_2" data-name="Raggruppa 2" transform="translate(235.932 340.846)">
        <g id="Raggruppa_1" data-name="Raggruppa 1" transform="translate(0 0)">
          <path id="Tracciato_5" data-name="Tracciato 5" d="M401.668,360.53a12.747,12.747,0,0,0-3.768,9.5,13.653,13.653,0,0,0,3.73,9.985,13.085,13.085,0,0,0,9.759,3.806,14.2,14.2,0,0,0,3.919-.6v-6.1a12.681,12.681,0,0,1-3.429.565,6.169,6.169,0,0,1-4.785-2,8.948,8.948,0,0,1-.038-10.739,5.641,5.641,0,0,1,4.484-2.072,14.07,14.07,0,0,1,3.768.565v-6.1a15.739,15.739,0,0,0-4.107-.49A12.833,12.833,0,0,0,401.668,360.53Zm26.151-3.73a10.136,10.136,0,0,0-8.139,3.467c-1.959,2.3-2.9,5.539-2.9,9.684,0,4.484.98,7.913,2.9,10.287s4.748,3.58,8.441,3.58a10.017,10.017,0,0,0,8.252-3.58c1.922-2.374,2.9-5.728,2.9-10.023s-.98-7.612-2.939-9.948C434.337,357.968,431.511,356.8,427.819,356.8Zm2.977,19.594a3.347,3.347,0,0,1-2.977,1.583,3.03,3.03,0,0,1-2.751-1.583c-.641-1.055-.942-3.165-.942-6.368,0-4.936,1.243-7.385,3.768-7.385,2.638,0,3.994,2.487,3.994,7.5C431.851,373.229,431.474,375.339,430.8,376.394Zm27.093-18.878-1.357,5.765c-.339,1.47-.678,2.977-.98,4.522L454.8,371.8c-.716-3.994-1.7-8.742-2.939-14.281h-8.742l-3.278,25.661H446.4l1.771-17.672,4.484,17.672h4.672l4.3-17.635,1.846,17.635h6.858l-3.467-25.661Zm31.388,0-1.357,5.765c-.339,1.47-.678,2.977-.98,4.522l-.754,3.994c-.716-3.994-1.7-8.742-2.939-14.281h-8.742l-3.278,25.661h6.556l1.771-17.672,4.484,17.672h4.672l4.258-17.635,1.846,17.635h6.858l-3.467-25.661ZM510.6,373.04h6.142v-5.313H510.6v-4.71h7.084v-5.464H503.67v25.661h14.055v-5.464H510.6Zm26.641-4.07a6.86,6.86,0,0,0,1.093-3.617,6.755,6.755,0,0,0-2.826-5.728,12.782,12.782,0,0,0-7.725-2.11h-8.064v25.661h6.933V371.5h.113l5.614,11.681h7.31l-5.539-11.568A6.851,6.851,0,0,0,537.244,368.971Zm-10.626-.414v-6.1a6.339,6.339,0,0,1,3.542.829,2.931,2.931,0,0,1,1.055,2.562C531.215,367.614,529.67,368.519,526.618,368.556Zm15.788-8.026a12.747,12.747,0,0,0-3.768,9.5,13.653,13.653,0,0,0,3.73,9.985,13.085,13.085,0,0,0,9.759,3.806,14.2,14.2,0,0,0,3.919-.6v-6.1a12.68,12.68,0,0,1-3.429.565,6.169,6.169,0,0,1-4.786-2,8.949,8.949,0,0,1-.038-10.739,5.641,5.641,0,0,1,4.484-2.072,14.07,14.07,0,0,1,3.768.565v-6.1a15.739,15.739,0,0,0-4.107-.49A12.891,12.891,0,0,0,542.406,360.53Zm22.5,17.145V373h6.142V367.69H564.9v-4.71h7.122v-5.464H558.006v25.661h14.055v-5.464H564.9Z" transform="translate(-397.9 -356.8)" fill="#b7b7b7"/>
        </g>
      </g>
    </g>
  </g>
</svg>
