<svg xmlns="http://www.w3.org/2000/svg" xmlns:xlink="http://www.w3.org/1999/xlink" width="120" height="120" viewBox="0 0 120 120">
  <defs>
    <clipPath id="clip-path">
      <rect id="Rettangolo_1" data-name="Rettangolo 1" width="146" height="146" transform="translate(0.277 0.277)"/>
    </clipPath>
    <clipPath id="clip-custom_1">
      <rect width="120" height="120"/>
    </clipPath>
  </defs>
  <g id="custom_1" data-name="custom – 1" clip-path="url(#clip-custom_1)">
    <g id="custom_1-2" data-name="custom – 1" transform="translate(-13.277 -13.277)" clip-path="url(#clip-path)">
      <g id="woocommerce_logo_white" transform="translate(18.467 40.359)">
        <path id="Tracciato_3" data-name="Tracciato 3" d="M148.188,331.2h89.36a10.228,10.228,0,0,1,10.233,10.233v34.111a10.228,10.228,0,0,1-10.233,10.233H205.5l4.4,10.772-19.344-10.772H148.232A10.228,10.228,0,0,1,138,375.544V341.433A10.19,10.19,0,0,1,148.188,331.2Z" transform="translate(-138 -331.2)" fill="#463e45" fill-rule="evenodd"/>
        <path id="Tracciato_4" data-name="Tracciato 4" d="M149.274,347.857a3.611,3.611,0,0,1,2.827-1.391,3.279,3.279,0,0,1,3.908,3.232q2.087,14.07,4.533,23.832l9.829-18.716a4.26,4.26,0,0,1,3.366-2.687c1.975-.134,3.186,1.122,3.681,3.77a83.84,83.84,0,0,0,4.264,15.35q1.75-17.1,5.924-24.686a3.448,3.448,0,0,1,2.962-1.975,3.9,3.9,0,0,1,2.827.9,3.516,3.516,0,0,1,1.391,2.559,3.9,3.9,0,0,1-.449,2.154c-1.75,3.232-3.186,8.663-4.354,16.2a83.574,83.574,0,0,0-1.257,17.1,5.326,5.326,0,0,1-.539,2.962,2.892,2.892,0,0,1-2.379,1.616,4.519,4.519,0,0,1-3.542-1.661q-6.262-6.4-9.919-19.121-4.376,8.617-6.463,12.926c-2.648,5.072-4.892,7.675-6.777,7.81-1.212.09-2.245-.943-3.142-3.1q-3.433-8.819-7.406-34.065a4.008,4.008,0,0,1,.714-3.01Z" transform="translate(-143.799 -338.565)" fill="#fff"/>
        <path id="Tracciato_5" data-name="Tracciato 5" d="M336.154,360.875a10.336,10.336,0,0,0-7.181-5.206,11.783,11.783,0,0,0-2.427-.269c-4.309,0-7.809,2.243-10.547,6.733a23.783,23.783,0,0,0-3.5,12.656,17.378,17.378,0,0,0,2.154,8.886,10.335,10.335,0,0,0,7.181,5.206,11.783,11.783,0,0,0,2.424.269c4.354,0,7.854-2.243,10.547-6.733a24.049,24.049,0,0,0,3.5-12.7,16.976,16.976,0,0,0-2.154-8.842ZM330.5,373.308a11.872,11.872,0,0,1-3.411,6.643,4.315,4.315,0,0,1-3.636,1.436c-1.077-.225-1.975-1.166-2.648-2.918a11.39,11.39,0,0,1-.807-4.084,15.6,15.6,0,0,1,.314-3.277,14.514,14.514,0,0,1,2.379-5.341c1.481-2.2,3.053-3.1,4.668-2.783,1.077.225,1.975,1.168,2.648,2.918a11.391,11.391,0,0,1,.808,4.084,19.408,19.408,0,0,1-.314,3.321Z" transform="translate(-234.183 -344.538)" fill="#fff"/>
        <path id="Tracciato_6" data-name="Tracciato 6" d="M273.454,360.875a10.428,10.428,0,0,0-7.181-5.206,11.781,11.781,0,0,0-2.424-.269c-4.309,0-7.809,2.243-10.547,6.733a23.782,23.782,0,0,0-3.5,12.656,17.378,17.378,0,0,0,2.154,8.886,10.336,10.336,0,0,0,7.181,5.206,11.78,11.78,0,0,0,2.423.269c4.354,0,7.854-2.243,10.547-6.733a24.05,24.05,0,0,0,3.5-12.7,16.976,16.976,0,0,0-2.154-8.842ZM267.8,373.308a11.872,11.872,0,0,1-3.411,6.643,4.315,4.315,0,0,1-3.636,1.436c-1.077-.225-1.975-1.166-2.648-2.918a11.4,11.4,0,0,1-.808-4.084,15.6,15.6,0,0,1,.314-3.277,14.512,14.512,0,0,1,2.379-5.341c1.481-2.2,3.053-3.1,4.668-2.783,1.077.225,1.975,1.168,2.648,2.918a11.392,11.392,0,0,1,.807,4.084,15.738,15.738,0,0,1-.314,3.321Z" transform="translate(-199.624 -344.538)" fill="#fff"/>
      </g>
    </g>
  </g>
</svg>
