<svg xmlns="http://www.w3.org/2000/svg" xmlns:xlink="http://www.w3.org/1999/xlink" width="120" height="120" viewBox="0 0 120 120">
  <defs>
    <clipPath id="clip-path">
      <rect id="Rettangolo_1" data-name="Rettangolo 1" width="120" height="120"/>
    </clipPath>
  </defs>
  <g id="custom_1" data-name="custom – 1" clip-path="url(#clip-path)">
    <g id="custom_1-2" data-name="custom – 1" clip-path="url(#clip-path)">
      <path id="icons8-wordpress" d="M42,4A40.039,40.039,0,0,0,6.644,25.314a1.11,1.11,0,0,0-.065.138,39.953,39.953,0,0,0,22,56.223c.054.022.108.037.161.054a39.98,39.98,0,0,0,46.4-60.1,5.5,5.5,0,0,0-.334-.608,6.473,6.473,0,0,0-.873-1.077A39.963,39.963,0,0,0,42,4Zm0,2.759A37.155,37.155,0,0,1,68.417,17.771a9.334,9.334,0,0,0-1.487.124,8.583,8.583,0,0,0-6.982,6.724c-.868,3.862.673,6.88,2.16,9.793,1.53,2.979,2.979,5.8,1.859,9.488L58.876,56.954,48.143,28.827h2.134a1.379,1.379,0,1,0,0-2.759H30.966a1.379,1.379,0,1,0,0,2.759H33.7l4.966,12.742L32.668,56.951,21.936,28.827h3.513a1.379,1.379,0,1,0,0-2.759H9.377A37.267,37.267,0,0,1,42,6.759Zm.017,4.138a1.379,1.379,0,0,0-1.379,1.379v2.759a1.379,1.379,0,0,0,2.759,0V12.276A1.379,1.379,0,0,0,42.017,10.9ZM34.533,11.92a1.361,1.361,0,0,0-.552.032,1.379,1.379,0,0,0-.975,1.687l.719,2.668a1.379,1.379,0,0,0,1.331,1.023,1.346,1.346,0,0,0,.356-.048,1.379,1.379,0,0,0,.981-1.687l-.721-2.668a1.356,1.356,0,0,0-1.138-1.007Zm14.972,0a1.379,1.379,0,0,0-1.148,1.007l-.712,2.668a1.379,1.379,0,0,0,.975,1.687,1.356,1.356,0,0,0,.361.048,1.379,1.379,0,0,0,1.331-1.023l.712-2.668a1.379,1.379,0,0,0-.975-1.687,1.335,1.335,0,0,0-.545-.032ZM27.022,14.882a1.306,1.306,0,0,0-.517.172A1.379,1.379,0,0,0,26,16.935l1.379,2.386a1.38,1.38,0,0,0,2.392-1.379l-1.379-2.386a1.379,1.379,0,0,0-1.374-.672Zm30,0a1.379,1.379,0,0,0-1.368.679l-1.379,2.386a1.38,1.38,0,0,0,2.392,1.379l1.379-2.386a1.379,1.379,0,0,0-.506-1.885,1.335,1.335,0,0,0-.523-.171Zm11.67,5.641a4.851,4.851,0,0,1,3.172,1.241c.286.377.552.765.819,1.153,2.043,4.4-1.994,17.147-5.167,24.448L55.7,77.682,43.882,47.366a.028.028,0,0,1-.011-.022q-.14-.233-.3-.452c-.048-.048-.124-.081-.183-.13a1.335,1.335,0,0,0-.263-.161s-.011-.017-.022-.017a1.3,1.3,0,0,0-.2-.037,1.479,1.479,0,0,0-.3-.054,1.417,1.417,0,0,0-.3.054,1.187,1.187,0,0,0-.2.037c-.011,0-.017.011-.022.017a1.123,1.123,0,0,0-.276.172,1.457,1.457,0,0,0-.178.119c-.048.054-.076.119-.119.172a1.7,1.7,0,0,0-.178.276c0,.011-.011.017-.017.028L29.491,77.683,10.449,28.827h8.535L31.37,61.271c0,.011.017.022.022.032a.749.749,0,0,0,.059.113,1.611,1.611,0,0,0,.2.3c.037.037.076.07.113.108a1.524,1.524,0,0,0,.313.194.362.362,0,0,0,.076.048.061.061,0,0,1,.043.011,1.468,1.468,0,0,0,.458.087,1.379,1.379,0,0,0,.447-.086.061.061,0,0,0,.043-.011.4.4,0,0,0,.081-.048,1.139,1.139,0,0,0,.308-.194.739.739,0,0,0,.119-.108,1.278,1.278,0,0,0,.2-.291.771.771,0,0,0,.065-.113l.017-.032L41.4,42.146c0-.017.011-.028.017-.043l.017-.032c.011-.037,0-.081.017-.119a1.368,1.368,0,0,0,.07-.388,1.181,1.181,0,0,0-.048-.276,1.577,1.577,0,0,0-.037-.221L36.661,28.827h8.53l12.4,32.445.017.032a.771.771,0,0,0,.065.113,1.361,1.361,0,0,0,.2.3c.037.037.076.07.113.108a1.685,1.685,0,0,0,.313.194.361.361,0,0,0,.076.048l.043.011a1.472,1.472,0,0,0,.463.087h.011a1.435,1.435,0,0,0,.21-.037,1.518,1.518,0,0,0,.263-.048c.017,0,.017-.011.032-.017a1.362,1.362,0,0,0,.263-.167c.059-.048.138-.081.189-.13a1.277,1.277,0,0,0,.119-.178,1.337,1.337,0,0,0,.172-.276c0-.011.017-.017.022-.028L66.574,44.8c1.481-4.855-.367-8.47-2-11.653-1.379-2.7-2.575-5.032-1.931-7.925a5.793,5.793,0,0,1,4.768-4.607,5.733,5.733,0,0,1,1.274-.091Zm7.182,8.027A37.179,37.179,0,0,1,58.86,77.188L70.076,48.412C70.74,46.881,75.1,36.585,75.875,28.551Zm-68.147.873,18.9,48.469a37.216,37.216,0,0,1-18.9-48.469ZM42.6,51.672,53.43,79.435a37.115,37.115,0,0,1-21.778.334Z" transform="translate(17.678 15.678)"/>
    </g>
  </g>
</svg>
